<?xml version="1.0" standalone="no"?>
<!DOCTYPE svg PUBLIC "-//W3C//DTD SVG 1.1//EN" "http://www.w3.org/Graphics/SVG/1.1/DTD/svg11.dtd">
<svg xmlns="http://www.w3.org/2000/svg">
<metadata>Generated by Fontastic.me</metadata>
<defs>
<font id="ibenefit" horiz-adv-x="512">
<font-face font-family="ibenefit" units-per-em="512" ascent="480" descent="-32"/>
<missing-glyph horiz-adv-x="512" />

<glyph glyph-name="3-dot-hoz-ico" unicode="&#97;" d="M11 255c0 33 22 55 55 55 32 0 55-22 55-55 0-31-21-55-55-55-33 2-55 24-55 55z m190 0c0 33 22 55 55 55 33 0 55-22 55-55 0-31-21-55-55-55-33 2-55 24-55 55z m190 0c0 33 23 55 55 55 33 0 55-22 55-55 0-31-20-55-55-55-32 2-55 24-55 55z"/>
<glyph glyph-name="ads-ico" unicode="&#98;" d="M459 2l-406 0c0 2 0 4 0 6l0 496c0 2 0 4 0 6l275 0c1-1 2-3 3-4l123-123c3-3 4-6 4-10l0-365c0-2 0-4 1-6z m-41 40l0 309-96 0c-7-1-13 1-17 6-5 4-7 10-6 17l0 96-205 0 0-428z m-30 349l-49 49 0-49z m-245-301l0 26 226 0 0-26z m134 306l-134 0 0 26 134 0z m-134-57l0 25 134 0 0-25z m241-35l0-122c-1-3-3-6-5-9-3-4-9-6-14-5l-131 0c-2 0-4-1-5-2l-39-38c-2-3-5-3-7-2-3 1-4 4-4 6l0 36-27 0c-8 0-15 5-16 13l0 123c1 8 9 14 18 13l214 0c8 0 15-5 16-13 0 0 0 0 0 0z m-82-84l0-8c0-2 1-3 3-4 11-5 23-6 35-5 8 1 16 5 21 12 4 6 6 13 4 20-2 7-7 13-13 15l-8 3-14 4c-2 0-4 1-4 3 0 2 2 3 4 4 4 1 8 1 12 0 5-1 10-3 14-7 2 0 4 0 5 0 0 0 2 3 2 4 0 4 0 9 0 14 0 1 0 2-1 2-1 1-1 2-2 2-9 3-18 5-27 4-8 0-15-2-21-7-7-5-10-13-9-21 1-8 6-15 13-18 5-2 10-3 15-5 5-1 6-2 9-3 1 0 2-2 2-3 0-1-1-2-2-3-1 0-2-1-3-1-4 0-8 0-12 0-6 1-12 4-16 8-2 1-4 1-5 0-1-1-2-2-2-4 0-2 0-4 0-7z m-72 23l0-35c0-4 0-4 4-4 10 0 21 0 30 0 14-1 27 8 33 21 3 6 4 13 4 21-1 19-16 35-35 35-11 0-21 0-31 0-4 0-5 0-5-4z m-30-24c0-4 2-8 3-12 0-1 1-2 2-3 1 0 2-1 3 0l16 0c4 0 4 1 3 4l-23 72c-1 1-2 2-4 2l-18 0c-1 0-2-1-3-2l-24-71c0-3 0-5 3-5l17 0c2 0 3 0 4 3 0 3 2 7 3 11 1 3 0 1 2 1z m49 24l0 21c0 3 0 4 4 4l7 0c11 0 21-10 21-21 0-5 0-11-2-16-3-8-10-14-19-14l-8 0c-3 0-3 0-3 4z m-58-11c-3 0-5 0-7 0-2 0-4 1-3 3 2 8 5 16 7 24 1 1 1 2 3 2 1 0 2-1 2-2l7-24c0-2 0-3-3-3-3 0-4 0-6 0z"/>
<glyph glyph-name="camera-plus-ico" unicode="&#103;" d="M364 317l-64 0 0 14c0 16-13 27-28 27l-149 0c-16 0-29-11-29-27l0-14-65 0c-14 0-28-13-28-27l0-182c0-16 14-28 28-28l334 0c16 0 28 14 28 28l0 182c1 14-12 27-27 27z m-168-191c-44 0-79 35-79 79 0 44 35 79 79 79 44 0 79-35 79-79 0-44-35-79-79-79z m64 79c0-36-28-65-64-65-36 0-64 29-64 65 0 35 28 64 64 64 36 0 64-29 64-64z m243 168l-50 0 0 51c0 5-2 8-7 8-4 0-7-3-7-8l0-51-50 0c-4 0-7-3-7-7 0-5 3-8 7-8l50 0 0-49c0-5 3-8 7-8 5 0 7 3 7 8l0 48 50 0c5 0 8 3 8 7 0 5-3 9-8 9z"/>
<glyph glyph-name="camera-ico" unicode="&#104;" d="M472 383l-83 0 0 17c0 21-17 36-36 36l-192 0c-21 0-38-17-38-36l0-17-83 0c-19 0-36-17-36-36l0-233c0-21 17-36 36-36l430 0c21 0 36 17 36 36l0 233c2 19-15 36-34 36z m-217-249c-57 0-102 46-102 102 0 57 45 102 102 102 57 0 102-45 102-102 0-56-45-102-102-102z m83 104c0-46-37-83-83-83-46 0-83 37-83 83 0 46 37 83 83 83 46 0 83-37 83-83z"/>
<glyph glyph-name="square-uncheck-ico" unicode="&#108;" d="M432 3l-353 0c-42 0-76 35-76 77l0 353c0 42 34 76 76 76l353 0c42 0 77-34 77-76l0-353c0-43-34-77-77-77z m-343 456c-20 0-36-16-36-36l0-335c0-19 16-35 36-35l335 0c9 0 18 4 25 11 7 6 11 16 11 25l0 335c0 20-17 36-36 36z"/>
<glyph glyph-name="checked-circle-ico" unicode="&#109;" d="M256 512c-142 0-256-114-256-256 0-142 114-256 256-256 142 0 256 114 256 256 0 142-114 256-256 256z m-47-386l-112 113 37 36 75-75 169 168 37-36z"/>
<glyph glyph-name="calendar-ico" unicode="&#99;" d="M384 510l-256 0c-64 0-117-52-117-117l0-274c0-65 53-117 117-117l256 0c64 0 117 52 117 117l0 274c0 65-53 117-117 117z m85-355l0-36c0-47-38-85-85-85l-33 0 0 121z m0 143l0-111-118 0 0 111z m-151-143l0-121-116 0 0 121z m0 143l0-111-116 0 0 111z m-149-143l0-121-41 0c-47 0-85 38-85 85l0 36z m0 143l0-111-126 0 0 111z m300 95l0-62-426 0 0 62c0 47 38 85 85 85l256 0c47 0 85-38 85-85z m-300 25l174 0c8 0 14-6 14-14l0-1c0-7-6-13-14-13l-174 0c-8 0-14 6-14 13l0 1c0 8 6 14 14 14z"/>
<glyph glyph-name="category-cms" unicode="&#102;" d="M218 218l0-204-205 0 0 204 205 0m25 294l141-230-281 0 140 230m141-281c47 0 89-28 107-72 18-43 8-92-25-125-33-33-83-43-126-25-43 18-71 60-71 106 0 31 12 60 33 82 22 22 51 34 82 34z"/>
<glyph glyph-name="checked-ico" unicode="&#105;" d="M181 59l-181 181 59 63 122-122 272 272 59-60z"/>
<glyph glyph-name="square-checked-ico" unicode="&#106;" d="M434 509l-356 0c-41 0-75-34-75-75l0-356c0-41 34-75 75-75l356 0c41 0 75 34 75 75l0 356c0 41-34 75-75 75z m22-154l-212-247c-4-5-12-5-16 0l-150 151c-4 4-4 12 0 16l33 33c5 5 12 5 17 0l108-107 169 201c2 3 5 4 8 4 4 0 7-1 9-4l34-31c7-5 6-10 0-16z"/>
<glyph glyph-name="comment-ico" unicode="&#110;" d="M440 493l-370 0c-37 0-70-32-70-70l0-225c0-39 31-70 70-70l0-103 147 103 221 0c39 0 70 31 70 70l0 225c2 38-29 70-68 70z m39-297c0-22-17-40-39-40l-232 0-107-74 0 74-31 0c-22 0-39 18-39 40l0 227c0 22 17 40 39 40l370 0c22 0 39-18 39-40z m-341 190l236 0 0-30-236 0z m0-63l236 0 0-31-236 0z m0-64l236 0 0-28-236 0z"/>
<glyph glyph-name="comment-question-ico" unicode="&#111;" d="M368 497l-25 0c-79 0-144-61-144-138 0-7 2-15 4-23l-132 0c-39 0-71-30-71-67l0-146c0-37 32-67 71-67l63 0 33-37c2-2 6-4 8-4 2 0 2 0 4 0 4 2 8 6 8 10l0 29 95 0c39 0 70 30 70 67l0 99 18 0c12 0 24 2 36 4l35-34c2-2 6-4 8-4 2 0 4 0 4 0 4 2 8 6 8 10l0 53c33 30 51 69 51 110 0 77-63 138-144 138z m-27-252c-20 0-38 6-55 14-28 14-48 37-58 67-4 14-5 24-5 33 0 63 55 115 120 115l25 0c67 0 120-52 120-115 0-35-17-69-47-92-4-2-4-6-4-10l0-32-21 20c-2 2-6 4-8 4-2 0-2 0-4 0-12-4-24-6-36-6l-25 0c0 2-2 2-2 2z m-85 6c2-2 2-2 0 0 6-4 12-8 18-12 2 0 2-2 4-2 6-2 10-4 15-6 2 0 4-2 6-2 4-2 10-2 14-4 2 0 6 0 8-1 2 0 4 0 6-2l0-99c0-24-22-45-47-45l-105 0c-6 0-12-6-12-12l0-12-15 18c-2 2-6 4-8 4l-69 0c-26 0-47 20-47 45l0 144c0 23 21 45 47 45l140 0c0-2 2-4 4-8 2-2 2-6 4-8 2-4 4-7 5-11 2-2 2-4 4-6 4-4 8-10 12-14 0 0 2-2 2-2 4-2 8-6 14-10z m106 158c8 0 16-8 16-16 0-10-6-18-14-20-10-2-15-10-15-20l0-21c0-6 5-12 11-12 6 0 12 6 12 12l0 20c20 5 32 23 30 43-2 21-18 37-40 39-11 0-23-4-31-12-8-7-14-19-14-31 0-6 6-12 12-12 6 0 12 6 12 12 0 6 2 10 6 14 5 2 11 4 15 4z m12-117c0 4-2 6-4 8-4 4-14 4-18 0-1-2-3-6-3-8 0-2 2-5 3-7 2-2 6-4 8-4 2 0 6 2 8 4 4 2 6 5 6 7z m-317-96c0-6 6-12 12-12l197 0c6 0 12 6 12 12 0 6-6 12-12 12l-197 0c-6 0-12-4-12-12z m201-43c-2-2-4-6-4-8 0-2 2-6 4-8 2-2 6-4 8-4 4 0 6 2 8 4 2 2 4 6 4 8 0 2-2 6-4 8-4 4-12 4-16 0z m-28 4l-161 0c-6 0-12-6-12-12 0-6 6-12 12-12l159 0c6 0 12 6 12 12 0 6-4 12-10 12z m-161 78l136 0c6 0 12 6 12 12 0 6-4 14-12 14l-136 0c-6 0-12-6-12-12 0-6 6-14 12-14z"/>
<glyph glyph-name="company-ico" unicode="&#112;" d="M223 128l-134 0c-5 0-10 2-13 7l-66 116c-2 4-2 10 0 14l66 116c3 4 8 7 13 7l134 0c5 0 9-3 12-7l66-116c3-4 3-10 0-14l-66-116c-3-5-7-7-12-7z m-126 28l117 0 59 101-59 101-117 0-58-101z m326-145l-134 0c-5 0-9 3-12 7l-66 116c-3 5-3 10 0 15l66 115c3 5 7 7 12 8l134 0c5-1 10-3 13-8l66-115c2-5 2-10 0-15l-66-116c-3-4-8-7-13-7z m-125 29l117 0 58 101-58 101-117 0-59-101z m125 200l-134 0c-5 1-9 3-12 8l-66 115c-3 5-3 10 0 15l66 116c3 4 7 7 12 7l134 0c5 0 10-3 13-7l66-116c2-5 2-10 0-15l-66-115c-3-5-8-7-13-8z m-125 29l117 0 58 102-58 101-117 0-59-101z m-85-14c0-32-26-57-57-57-32 0-58 25-58 57 0 32 26 57 58 57 31 0 57-25 57-57z m201 118c0-32-26-57-58-57-31 0-57 25-57 57 0 31 26 57 57 57 32 0 58-26 58-57z m0-238c0-32-26-57-58-57-31 0-57 25-57 57 0 32 26 57 57 57 32 0 58-25 58-57z"/>
<glyph glyph-name="computer-ico" unicode="&#113;" d="M321 326l95 0 0-109-95 0z m-110-63l85 0 0-46-85 0z m110 129l95 0 0-43-95 0z m151 96l-432 0c-22 0-40-17-40-39l0-289c0-22 18-39 40-39l176 0 0-65-99 0c-8 0-16-7-16-16 0-9 8-16 16-16l278 0c8 0 16 7 16 16 0 9-8 16-16 16l-99 0 0 65 176 0c22 0 39 17 39 39l0 289c0 22-17 39-39 39z m8-337l-449 0 0 306 449 0z m-384 112l90 0 0-46-90 0z m0 129l200 0 0-103-200 0z"/>
<glyph glyph-name="course-ico" unicode="&#114;" d="M500 458l-207 0c-15 0-29-6-38-16-9 8-21 16-36 16l-207 0c-7 0-12-6-12-13l0-346c0-7 5-12 12-12l207 0c15 0 25-9 25-22 0-7 6-12 13-12 7 0 12 5 12 12 0 11 11 22 25 22l206 0c7 0 12 5 12 12l0 346c0 7-7 13-12 13z m-257-45l0-307c-9 4-16 7-25 7l-193 0 0 321 194 0c13-1 24-10 24-21z m25 0c0 11 10 21 25 21l194 0 0-321-194 0c-9 0-16-2-25-5z m-195-127l123 0 0-23-123 0z m0-46l123 0 0-21-123 0z m0 137l123 0 0-23-123 0z m0-46l123 0 0-21-123 0z m245-45l123 0 0-23-123 0z m0-46l123 0 0-21-123 0z m-245-46l123 0 0-22-123 0z m245 0l123 0 0-22-123 0z m0 183l123 0 0-23-123 0z m0-46l123 0 0-21-123 0z"/>
<glyph glyph-name="customers-ico" unicode="&#115;" d="M89 132c0 2 1 4 2 7 7 27 31 47 59 50 17 2 35 4 52 6l2 1c0 8 0 16 0 24 0 1-1 1-2 2-18 15-30 37-34 60-1 4-1 8-2 13 0 2-1 2-3 3-12 3-20 14-20 27 0 12 8 23 20 27 2 1 3 2 3 4 0 9 0 18 0 28 0 1-1 3-2 4-20 23-18 57 4 77 2 3 5 5 7 7 2 2 5 3 7 3 2-1 5-2 6-4 3-5 7-10 10-15 1-2 3-3 6-3l82 0c15 1 29-6 36-19 1-1 2-2 4-2 10-2 19-8 26-16 6-9 8-20 5-30-1-10-3-20-5-31 0-2 0-3 2-4 11-4 18-15 18-27-1-12-9-23-21-26-1 0-3-2-3-3-1-18-7-35-16-50-5-8-11-16-19-22-1-1-2-3-2-5 0-6 0-12 0-19 0-2 1-4 3-4 19-2 37-4 55-7 28-4 50-25 56-53 0-1 0-2 0-2l0-109-15 0 0 100c-1 24-18 45-42 49-15 3-30 4-45 6l-1-3c-4-15-7-30-11-45-2-6-8-8-14-4l-13 8c-2-4-3-9-4-13 2-25 4-49 6-74 0-8 1-15 2-23l-12-2-4 0c0 1 0 2 0 3-2 21-3 42-5 63l-2 28-16 0c0-1 0-2 0-3-2-25-4-51-6-76 0-5-1-10-1-15l-4 0-11 2 1 17c2 26 4 52 6 77 0 5-1 11-4 16l-1 0-12-8c-2-2-5-3-8-2-3 1-5 4-5 7-3 8-5 17-7 25-3 9-4 15-6 23-13-2-25-4-38-5-27-1-48-24-48-51l0-100-16 0z m92 250l0-75c0-19 5-37 14-54 12-20 34-34 58-35 24-1 47 9 62 29 11 16 18 36 18 56 0 13 0 26 0 39 0 1-1 3-2 5-7 11-15 22-22 32-2 2-4 3-7 3l-121 0z m-1 75c-1-1-2-2-2-3-15-15-17-38-4-55 2-2 5-3 7-3l128 0c4 0 7-2 9-5 6-8 12-16 18-24 0-1 1-2 2-3 1 4 1 8 2 11 0 4 2 10 2 15 2 6 0 14-5 19-4 5-11 8-18 8-4 0-7 2-8 5-4 11-16 18-28 17-28 0-56 0-84 0-5-1-9 2-11 5-2 5-5 8-9 13z m116-246c-24-11-52-11-76 0 0-7 0-14 0-21 0-1 1-2 2-2 11-6 22-12 34-18 1-1 2-1 4 0 11 6 22 12 34 18 1 1 2 2 2 3-1 7-1 14-1 21z m-53-51l-36 19 9-36z m64 19l-35-19 26-17z m-50-27l-11-8c-1 0-2-1-2-2 1-3 2-6 4-9 0 0 1-1 2-1 5 0 10 0 15 0 1 0 3 1 3 2 1 4 1 7 2 10 0 0-1 0-1 0z m-92 161l0 24c-5-2-7-7-7-12 0-5 2-10 7-12z m184 24l0-24c5 2 7 7 7 12 0 5-2 10-7 12z m-183-234l0-79-15 0 0 79z m183 0l15 0 0-79-15 0z m-97 194l13 0 0-15-12 0c-4 0-7 0-10 0-6 0-10 5-8 9 5 17 10 34 15 51l15-4z m41-27c-14-13-33-19-51-16l0 14c14-2 29 2 40 12z m-81 76c3 1 7-1 10-4 3-2 5-6 5-10 0-8-7-15-16-15-8 0-15 7-15 15 0 4 2 8 5 11 3 2 7 4 11 3z m106-14c0-4-1-8-4-11-3-2-7-4-11-4-8 1-14 8-13 16 0 7 7 13 14 13 8 0 14-6 14-14z"/>
<glyph glyph-name="delete" unicode="&#116;" d="M256 512c-141 0-256-114-256-256 0-141 114-256 256-256 141 0 256 114 256 256 0 141-115 256-256 256z m122-290l-244 0c-18 2-31 16-31 34 0 18 13 32 31 34l244 0c13 1 25-5 32-16 7-11 7-25 0-36-7-11-19-17-32-16z"/>
<glyph glyph-name="deliver-ico" unicode="&#117;" d="M410 159c-13 0-24-5-33-13-9-9-13-21-13-33 0-12 4-24 13-32 9-9 20-13 33-14 25 0 45 21 45 46 0 26-20 46-45 46z m0-72c-15 0-26 12-26 26 0 14 11 26 26 26 14 0 25-12 25-26 0-14-11-26-25-26z m11 224c-1 2-4 3-6 3l-52 0c-6 0-10-5-10-11l0-83c0-6 4-10 10-10l83 0c5 0 10 4 10 10l0 56c0 3-1 6-4 8z m14-81l-62 0 0 64 38 0 24-22z m-274-71c-12-1-24-5-32-14-9-8-14-20-14-32 0-12 5-24 14-33 9-8 20-13 32-13 26 0 46 20 46 46 0 25-20 46-46 46z m0-72c-14 0-25 11-25 25 0 15 11 26 25 26 15 0 26-11 26-26 0-14-11-25-26-25z m-67 60l-21 0 0 27c0 5-4 10-10 10-5 0-10-5-10-10l0-38c0-5 5-10 10-10l31 0c6 0 10 5 10 10 0 6-4 11-10 11z m48 58c0 6-5 10-10 10l-114 0c-5 0-9-4-9-10 0-5 4-9 9-9l114 0c5 0 10 4 10 9z m-105 34l114 0c5 0 10 4 10 9 0 3-1 5-3 7-2 2-4 3-7 3l-114 0c-4 0-8-4-8-9 0-5 4-9 8-10z m19 43l114 0c4 0 8 1 9 4 2 4 2 7 0 10-1 4-5 5-9 5l-114 0c-4-1-8-5-8-10 0-4 4-8 8-9z m441 16l-73 60c-1 2-4 3-6 3l-86 0 0 37c0 5-4 10-10 10l-259 0c-5 0-10-5-10-10l0-75c0-5 5-10 10-10 6 0 11 5 11 10l0 65 238 0 0-241-83 0c-6 0-10-5-10-11 0-5 4-10 10-10l124 0c6 0 10 5 10 10 0 6-4 11-10 11l-21 0 0 194 82 0 67-55-1-139-10 0c-6 0-11-5-11-10 0-6 5-10 11-10l20 0c6 0 10 4 10 10l1 153c0 4-1 6-4 8z"/>
<glyph glyph-name="department-ico" unicode="&#118;" d="M421 512l-330 0c-50 0-91-41-91-91l0-330c0-50 41-91 91-91l330 0c50 0 91 41 91 91l0 330c0 50-41 91-91 91z m0-452l-330 0c-17 0-31 14-31 31l0 206 259 0c15 1 27 14 27 30 0 15-12 28-27 30l-259 0 0 64c0 17 14 31 31 31l330 0c17 0 31-14 31-31l0-208-239 0c-16-1-28-14-28-30 0-15 12-28 28-30l239 0 0-62c0-17-14-31-31-31z"/>
<glyph glyph-name="3-dots-ver-ico" unicode="&#119;" d="M312 458c0-31-25-55-55-55-30 0-54 24-54 55 0 30 24 54 54 54 30 0 55-24 55-54z m0-202c0-30-25-54-55-54-30 0-54 24-54 54 0 30 24 54 54 54 30 0 55-24 55-54z m0-204c0-30-25-55-55-55-30 0-54 25-54 55 0 30 24 54 54 54 30 0 55-24 55-54z"/>
<glyph glyph-name="down-ico" unicode="&#120;" d="M37 406l-34-34c-3-3-3-13 0-20l253-253 249 253c7 7 7 17 0 20l-30 31c-7 6-17 6-20 0l-189-186c-7-6-17-6-20 0l-189 189c-6 3-17 3-20 0z"/>
<glyph glyph-name="down-circle-ico" unicode="&#121;" d="M120 325l-19-19c-4-4-4-10 0-12l157-158 157 158c5 4 5 10 0 12l-18 19c-5 4-11 4-13 0l-118-117c-4-4-10-4-12 0l-122 117c-4 4-8 4-12 0z m-120-69c0 141 115 256 256 256 141 0 256-115 256-256 0-141-115-256-256-256-141 0-256 115-256 256z m481 0c0 124-101 222-223 222-126 0-224-98-224-222 0-124 100-222 222-222 124-3 225 98 225 222z"/>
<glyph glyph-name="edit-ico" unicode="&#65;" d="M504 417c0 15-6 31-17 43l-26 25c-11 11-27 17-42 17-16 0-31-6-43-17l-52-51-277-275c-2-2-10-8-10-13l-29-105c-2-8 0-18 6-23 4-4 11-8 17-8 2 0 4 0 6 0l107 27c5 2 9 4 13 8l277 277 53 50c11 12 17 27 17 45z m-463-376l21 81 60-60z m108 42l-67 68 242 239 68-68z m316 311l-42-41-68 68 42 42c12 12 32 12 43 0l25-25c6-6 8-13 8-21 0-10-2-18-8-23z"/>
<glyph glyph-name="email-ico" unicode="&#66;" d="M505 131c0-11-3-21-7-29l-158 175 156 137c6-10 9-22 9-33z m-249 115l216 189c-9 4-19 8-29 8l-374 0c-12 0-22-4-29-8z m60 12l-50-45c-2-2-6-4-10-4-4 0-8 2-10 4l-50 45-160-177c10-8 21-12 33-12l374 0c12 0 23 4 33 10z m-300 156c-6-10-9-22-9-33l0-250c0-11 3-21 7-29l158 175z"/>
<glyph glyph-name="favourite-ico" unicode="&#67;" d="M363 489c-41 0-80-20-106-56-30 39-67 56-108 56-80 0-145-65-145-145 0-136 211-298 234-315 5-3 11-6 17-6 6 0 13 2 17 6 25 17 236 179 236 315 0 80-65 145-145 145z"/>
<glyph glyph-name="fb-ico" unicode="&#68;" d="M442 512l-372 0c-38 0-69-31-69-70l0-373c0-38 31-69 69-70l231 0 0 214-43 0 0 86 43 0 0 39c-2 24 6 48 24 65 17 18 41 26 65 24l66 0 0-73-47 0c-6 0-11-2-15-6-3-4-5-9-4-14l0-35 68 0-4-53-3-34-64 0 0-213 55 0c38 0 69 31 69 70l0 373c0 18-7 36-20 49-13 13-31 21-49 21z"/>
<glyph glyph-name="gift" unicode="&#69;" d="M396 404c7 10 11 22 11 34 0 32-26 58-57 58-23 0-72-32-94-61-10 14-26 28-45 40-19 12-38 20-49 20-31 0-56-26-56-58 0-12 3-23 9-33l-99 0 0-136 28 0 0-252 424 0 0 251 28 0 0 137z m-204-137l0-224-121 0 0 224z m277 110l0-83-149 0 0 83z m-90 60c0-15-10-28-24-31l-80 0c-3 1-4 1-4 2 1 6 11 19 31 35 19 15 38 26 48 26 16 0 29-14 29-32z m-86-60l0-334-74 0 0 334z m-101 0l0-83-149 0 0 83z m-30 92c9 0 28-11 47-26 20-16 31-29 32-35 0-1-1-1-3-2l-81 0c-14 3-24 16-24 31 0 9 3 17 9 23 6 6 13 9 20 9z m279-202l0-224-121 0 0 224z"/>
<glyph glyph-name="order-delivery" unicode="&#70;" d="M295 120l-136 0c-8 0-14-6-14-14 0-8 6-14 14-14l136 0c8 0 14 6 14 14 0 8-6 14-14 14z m0 56l-136 0c-8 0-14-6-14-14 0-7 6-14 14-14l136 0c8 0 14 7 14 14 0 8-6 14-14 14z m-178-14c0 8-7 14-14 14-8 0-14-6-14-14 0-7 6-14 14-14 7 0 14 7 14 14z m28 57c0-8 6-14 14-14l136 0c8 0 14 6 14 14 0 7-7 14-14 14l-136 0c-8 0-14-7-14-14z m-42-99c-8 0-14-6-14-14 0-8 6-14 14-14 7 0 14 6 14 14 0 8-7 14-14 14z m138 189c22 22 27 55 13 83l21 20c5 6 5 14 0 20-6 5-15 5-20 0l-18-18c-28 25-71 23-97-3-28-28-28-74 0-102 28-28 73-28 101 0z m-81 82c15 15 40 17 57 3l-25-25-8 8c-5 6-14 6-19 0-6-5-6-14 0-20l17-17c6-6 15-6 20 0l31 30c3-15-1-30-12-41-17-17-44-17-61 0-17 17-17 45 0 62z m246 106l-306 0c-37 0-68-30-68-67l0-399c0-8 7-14 14-14l305 0c8 0 14 6 14 14l0 206 96 0c8 0 14 7 14 14l0 177c0 38-31 69-69 69z m-69-69l0-383-277 0 0 385c0 21 18 39 40 39l250 0c-8-11-13-26-13-41z m110-162l-82 0 0 162c0 23 19 41 41 41 22 0 41-18 41-41l0-162z m-358-47c0-8 6-14 14-14 7 0 14 6 14 14 0 7-7 14-14 14-8 0-14-7-14-14z"/>
<glyph glyph-name="filter-ico" unicode="&#71;" d="M308 19c-12 0-24 10-24 24l0 188c0 26 12 53 31 69l130 133c7 4 2 12-5 12l-370 0c-8 0-10-8-5-15l115-125c22-21 34-48 34-79l0-183c0-12-10-24-24-24-15 0-24 10-24 24l0 185c0 17-7 34-19 46l-133 144c-14 12-16 32-12 48 5 17 24 27 41 27l421 0c17 0 34-10 41-24 9-19 5-41-10-56l-146-149c-12-9-17-21-17-36l0-187c0-12-12-22-24-22z m-262 431z"/>
<glyph glyph-name="flag-ico" unicode="&#72;" d="M442 334l-342 146 0 17c0 7-5 15-15 15-8 0-15-8-15-15l0-482c0-7 7-15 15-15 8 0 15 8 15 15l0 197z m-63 2l-279-99 0 218z"/>
<glyph glyph-name="flash" unicode="&#73;" d="M164 251l-31-86z m82 259l-240-232c-2-3-3-6-3-9 0 2 1 6 3 9z m-42-259c6 12-2 26-15 27l-118 9c-4 0-5 5-3 7l185 216c0 1-1 1-2 1 0 0 0 0-1 0 0 0 0 0-1 0 0 1 0 1-1 1 0 0 0 0-1 0-1 0-1-1-2-1l-239-233c-2-3-3-6-3-9 1-6 4-10 11-10l151-8-31-87-57-157c0-1 0-2 0-2 0 0 0 0 0 0 0-1 0-1 0-2 0-1 1-1 1-1 1 0 1-1 2-1z m130 260c1 0 1-1 2-1-1 1-2 1-2 1z m-6-1c1 1 1 1 2 1-1 0-2 0-2-1z m-168-508c0 0-1 1-1 1 1 0 1-1 1-1z m55 163l-56-158c0-1 0-2 0-2 0 1 0 2 0 2z m-119 94c-7 0-10 5-11 10 1-5 4-10 11-10l151-8z m320 79l-137 2 58 164c1 2 0 4-1 5l-186-215c-2-2-1-7 3-7l118-8c12-1 21-15 15-27l-124-252c-1 0-1 1-2 1 3-1 7-2 9 1l256 318c6 7 0 18-9 18z"/>
<glyph glyph-name="right-circle-ico" unicode="&#75;" d="M187 120l19-19c4-4 10-4 12 0l158 157-158 157c-4 5-10 5-12 0l-19-23c-4-4-4-10 0-12l117-118c4-4 4-10 0-12l-117-118c-4-4-4-10 0-12z m69-120c-141 0-256 115-256 256 0 141 115 256 256 256 141 0 256-115 256-256 0-141-115-256-256-256z m0 478c-124 0-222-98-222-222 0-124 100-222 222-222 122 0 222 100 222 222 3 124-98 222-222 222z"/>
<glyph glyph-name="fprint-ico" unicode="&#76;" d="M488 417l0 10c0 33-28 61-61 61l-10 0 0 24 10 0c46 0 85-39 85-85l0-10z m-488 0l0 10c0 46 39 85 85 85l10 0 0-24-10 0c-33 0-61-28-61-61l0-10z m417-417l0 24 10 0c33 0 61 28 61 61l0 10 24 0 0-10c0-46-39-85-85-85z m-332 0c-46 0-85 39-85 85l0 10 24 0 0-10c0-33 28-61 61-61l10 0 0-24z m169 364c11 0 22-2 34-6 22-7 38-20 53-37 6-7 11-17 15-26 6-13 11-26 17-37 2-4 5-6 4-11-2-4-8-8-12-6-3 2-5 4-7 8-7 11-13 22-17 33-3 11-7 20-15 30-12 16-33 27-53 31-21 4-47 2-65-11-10-7-19-13-26-22-19-21-22-48-17-74 4-26 17-50 30-73 7-13 16-24 24-37 4-5 2-9-2-13-4-2-9 0-13 4-9 13-18 28-28 43-3 11-9 24-15 37-3 9-7 18-9 27-4 10-5 21-5 32 0 9 1 17 3 26 4 15 10 28 19 39 9 13 22 24 37 30 17 9 31 13 48 13z m-139-97c-2-15 0-30 4-44 2-6 3-12 3-17 2-4 2-8 4-11 2-6 0-8-4-9-3-2-11 0-11 3-3 8-7 17-9 26-6 17-6 35-6 54 0 7 2 15 4 20 2 10 6 19 9 28 2 8 6 13 12 21 3 7 9 16 16 24 6 5 11 13 19 16 31 25 70 39 111 36 43-2 82-23 111-54 2-4 6-6 6-11 0-4-2-10-6-10-1 0-3 0-5 2-6 4-9 8-13 11-28 28-67 43-106 43-24 0-48-7-70-20-23-13-39-34-52-56-11-15-17-33-17-52z m169 154c-9 0-19 2-30 2-7 0-15-2-22-2-4 0-6 0-9-2-12-3-23-5-34-9-11-6-22-13-31-20-4-2-11-2-13 1-2 6-2 12 3 13 6 4 12 8 19 12 7 3 15 7 22 11 6 2 13 5 19 7 5 2 11 2 16 4 17 4 34 2 51 2 7 0 14-2 22-4 7-2 15-4 22-6 9-3 19-7 26-11 11-5 22-13 32-20 7-6 16-15 22-22 9-12 17-23 22-34 4-7 8-15 11-24 4-9 6-18 13-24 6-4 11-7 17-11 2-2 5-8 4-9-2-6-8-10-12-8-9 4-18 9-25 17-4 5-8 13-12 20-3 8-5 15-9 22-4 8-7 17-13 25-7 9-17 20-24 29-6 6-11 11-17 15-9 6-18 11-29 17-8 4-15 5-23 7-7 0-13 0-18 2z m-61-165c-2 13 5 20 14 28 8 5 17 7 26 5 10-1 17-7 23-14 2-4 3-10 5-15 4-8 6-15 10-23 3-7 9-16 13-24 3-5 9-11 12-18 4-4 2-9-1-11-4-4-10-2-13 2-8 11-17 22-24 33-4 7-8 15-12 24-3 7-5 15-11 22-3 6-9 8-15 6-3-2-7-4-11-8-5-7-2-13 2-20 4-9 8-19 11-28 10-17 19-33 32-48 5-7 11-13 18-20 10-8 19-17 28-23 11-7 24-15 35-20 4-2 8-2 10-6 2-2 3-5 2-9 0-2-4-6-8-6-4 0-7 2-13 4-20 9-41 22-59 37-13 13-26 28-39 41-8 9-15 21-21 33-5 10-9 19-13 30-1 6-5 11-7 19 6 3 6 5 6 9z m-84 121c-5-6-9-12-13-17-5-8-11-15-17-24-3-8-7-13-11-21-2-7-5-13-5-20-2-11-4-22-6-33 0-10 0-21 2-30 0-6 2-11 4-19 2-5 3-11 5-16 2-6 4-11 6-17 2-6 4-9 5-13 4-7 6-13 10-20 3-10 9-17 15-26 5-10 13-19 18-30 2-4 2-8-2-11-3-4-9-2-11 2-11 16-20 31-30 48-7 11-11 24-16 37-4 9-8 19-11 26-2 5-4 11-4 18-2 10-4 21-6 30 0 11 0 22 0 34 0 3 0 7 2 11 2 9 4 18 8 26 3 11 9 24 14 35 4 9 12 17 17 26 4 4 6 7 9 9 2 2 6 4 8 2 4 0 5-4 9-7 0 1 0 1 0 0z m115-38c13 0 26-1 37-7 11-6 21-11 28-20 6-8 11-15 15-23 5-13 11-26 17-39 9-14 20-29 35-39 11-7 22-14 35-20 6-4 13-4 21-5 3-2 7-4 7-6 2-4 0-7-2-9-2-2-7-2-9-2-13 4-24 7-37 13-10 5-19 11-28 18-9 8-19 17-26 26-8 10-13 21-19 32-5 11-9 22-14 33-6 10-15 19-25 24-13 8-29 10-44 8-9-2-17-6-26-9-4-2-11 0-13 5-2 7 9 11 17 13 11 6 22 7 31 7z m-65-35c2 0 2 0 4 0 2 0 4-2 5-3 2-2 0-6 0-10-5-15-11-28-9-42 2-8 4-15 6-23 3-11 7-20 13-31 5-13 13-24 20-35 11-17 24-34 39-47 15-15 32-26 48-39 2-2 6-4 8-5 3-4 2-10-2-11-2-2-7-2-11 0-22 12-41 27-60 46-7 7-16 17-22 26-7 11-17 22-22 33-6 8-9 17-13 26-4 8-7 17-11 24-11 28-15 60 4 86 0 2 1 3 3 5z m-106 67c0 6 8 13 12 17 5 5 11 11 16 16 13 13 30 26 47 34 55 29 122 33 180 9 5-2 9-5 14-9 6-6-3-11-9-11-4 0-5 2-9 2-26 9-54 14-82 14-35 0-66-11-96-29-9-6-19-13-26-19-9-4-17-11-22-18-6-6-15-21-25-10 0 2 0 2 0 4z m56-113c2-39 17-74 35-108 8-13 17-28 28-41 13-14 28-29 43-44 2-2 5-6 7-7 0-2 0-6-2-8-3-2-7-4-9-2-7 4-13 10-18 15-8 6-13 13-19 20-9 12-18 25-28 36-9 13-16 24-24 39-5 9-9 18-13 29-4 8-7 17-9 24-2 6-4 12-4 17 0 8-2 15-2 22 0 8-2 15 0 21 0 4 2 5 6 7 4 2 7 2 9 0 4-2 4-7 4-11-4-4-4-5-4-9z m314-45c-8 2-17 4-24 10-12 5-23 13-32 20-6 6-11 11-15 19-4 3-5 9-7 13-4 5-6 13-8 18-3 8-7 17-11 24-5 9-13 19-22 26-8 8-17 13-26 19-7 3-17 7-26 9-2 2-6 2-7 4-4 2-4 5-2 9 0 2 2 4 3 6 2 0 2 0 4 0 8-2 17-4 24-6 6-2 11-6 17-7 13-8 26-17 35-28 8-8 13-17 19-26 3-6 7-13 9-21 2-5 4-11 6-14 5-12 11-23 22-30 5-6 13-11 20-15 8-4 15-6 22-7 6-2 10-6 10-12-2-7-6-9-11-11z m-197 50c6 2 7-3 9-7 4-7 6-15 10-22 5-11 11-21 16-32 6-7 11-15 19-22 13-15 28-28 44-37 11-8 24-13 36-19 3-2 5-3 9-3 5-2 5-6 4-12-2-3-6-7-12-5-14 7-29 13-44 20-26 15-48 36-65 62-9 12-17 29-26 44-4 7-7 17-9 24-2 4 2 9 9 9z m-173 80c0-4-1-7-3-11-2-6-4-11-6-18-2-6-4-12-5-17 0-2-2-6-2-8 0-5-2-9-2-14 0-10-2-17-2-26 0-12 2-21 4-32 2-9 3-17 7-26 4-9 8-18 13-28 4-7 4-13-4-15-1-1-7 0-7 2-6 8-9 15-13 24-4 8-7 17-9 26-2 4-2 10-4 15-2 8-4 15-4 22 0 4 0 10 0 13 0 8 0 15 0 23 0 7 2 16 4 24 0 5 2 9 4 15 2 5 4 11 5 16 2 6 6 13 8 19 3 7 11 7 16 2 0-2 0-4 0-6z m114-87c0 19 7 33 22 45 5 5 15 7 22 11 6 2 13 3 19 3 13-1 26-3 35-14 4-4 6-8 9-13 0-2-2-6-3-6-2-2-6-2-10 0-5 2-7 7-13 9-3 2-9 6-15 6-11 2-22 0-31-8-13-9-21-26-17-40 2-8 4-13 6-21 2-7 5-15 9-20 2-6 6-11 7-15 2-4-1-9-5-9-8-2-11 2-15 11-4 9-7 18-11 28-2 5-4 13-6 20-2 2-3 7-3 13z m226-111c-17 0-32 11-45 18-20 13-39 28-52 47-7 11-14 22-20 33-2 6-4 11-5 15 0 4 1 7 5 7 4 0 8 0 11-3 4-10 9-19 13-28 11-19 24-34 41-47 9-7 19-13 28-16 9-4 18-8 28-11 3-2 9-4 9-6 4-6 0-11-7-11-2 2-4 2-6 2z m-54 285c2 0 4-1 6-1 15-10 26-21 39-34 7-9 15-18 20-28 4-5 8-13 11-18 4-8 6-15 9-24 2-6 4-11 6-17 0-2-2-6-4-7-2-2-5-2-9-2-5 2-5 7-7 11-2 4-2 5-4 9-2 4-4 7-6 13-3 7-5 15-11 20-3 8-7 15-13 21-9 9-18 18-28 28-5 5-11 9-16 15-2 1-2 7-2 9 4 4 5 5 9 5z m-126-59c-15-2-30-7-43-15-5-2-11-5-14-9-6-4-12-8-17-13-6-8-11-17-17-24-2-4-4-9-7-13-2-4-10-4-11-2-4 4-4 7-2 11 11 24 24 43 46 58 15 11 32 18 50 22 6 2 19 5 24 0 4-4 2-11-2-15-3 2-5 2-7 0z m-6-208c0 2 0 4 2 6 4 5 11 4 15-2 13-17 26-32 43-46 17-15 33-26 52-36 7-3 9-11 3-16-1-2-7-2-11 0-18 11-37 22-52 35-9 7-18 18-27 28-8 9-17 16-23 26-2 2-2 3-2 5z m-115 0c0 0 0 2 0 0 0 4 6 8 10 8 3 0 7-2 9-6 6-9 9-18 15-28 9-15 20-29 30-44 5-8 12-15 18-23 4-3 4-9 0-12-4-4-9-4-13 1-18 19-33 39-48 62-4 7-8 14-11 22-4 5-8 13-10 20z m344 87c0-7-6-11-13-9-8 2-15 4-23 8-7 5-14 11-22 16-5 6-11 15-15 23-3 7-5 14-9 24-2 3-2 5-2 9 0 4 2 7 4 7 2 2 7 2 9 0 4-3 6-9 9-13 4-7 6-16 12-26 3-5 7-13 13-16 7-6 14-10 24-13 3-2 9-4 13-6 0-2 0-4 0-4z m-45-118c0-10-5-11-13-10-9 4-18 6-26 12-11 5-20 13-31 18-4 2-8 6-12 9-5 4-5 10-3 13 3 6 9 6 15 0 13-7 24-16 37-24 7-3 16-7 26-11 2 0 7-2 7-7z m28 57c-7 2-15 4-22 8-10 3-17 7-26 11-6 3-13 7-17 13-4 3-2 7 2 11 4 4 7 2 11 0 9-6 19-13 28-17 7-4 17-5 24-9 7-2 11-9 5-15 0 0-3 0-5-2z m-213-83c0 0 1 0 1 0 8-4 15-11 21-17 7-6 15-13 20-20 4-4 8-8 11-11 0-2-1-6-3-8-2-2-6-2-8 0-15 11-28 22-42 33-4 4-10 8-10 13 0 4 6 10 10 10z"/>
<glyph glyph-name="fullscr-ico" unicode="&#77;" d="M297 312l148 147 24 24-137 0 0 25 178-1 0-178-25 0 1 103 0 34-171-171z m-271 154l0-137-24 0 1 179 178-1-1-25-103 1-34 0 173-172-19-16z m306-462l0 26 104-1 33 0-172 172 18 16 147-147 24-24 0 137 24 0 0-179z m-330 0l1 179 24 0-1-104 0-33 172 171 18-17-149-148-24-23 138 0-1-25z"/>
<glyph glyph-name="eye-hide" unicode="&#78;" d="M256 319c-17 0-31-6-44-13l109-110c8 13 13 27 13 44 0 43-35 79-78 79z m-57-24l-38 38-29 29-65 65-14-15 61-61c-52-29-91-68-108-85-4-5-4-11 1-17l12-10c5-4 12-4 16 1 16 17 56 55 108 82l44-44c-7-12-10-25-10-39 0-43 35-79 79-79 14 0 27 3 39 10l86-86 14 14-84 85z m306-29c-29 30-129 127-249 127-39 0-74-9-107-24l30-30c25 9 51 15 77 15 104 0 194-86 220-114 4-4 12-5 16-1l12 10c5 4 6 12 1 17z"/>
<glyph glyph-name="home-btn-ico" unicode="&#79;" d="M505 306l-240 175c-7 5-13 5-20 0l-238-175c-4-3-7-7-7-12 0-4 0-8 3-11 4-3 7-7 12-7 1 0 1 0 3 0 3 0 7 2 10 4l227 168 231-168c6-5 18-4 23 3 3 3 3 8 3 11-2 5-3 9-7 12z m-65-25c-10 0-16-8-16-16l0-206-98 0 0 111c0 38-32 69-69 69-38 0-69-31-69-69l0-111-98 0 0 206c0 10-8 16-16 16-9 0-17-8-17-16l0-222c0-10 7-17 17-17l130 0c9 0 17 7 17 15 0 0 0 2 0 2l0 127c0 20 16 36 36 36 19 0 36-16 36-36l0-127c0 0 0-2 0-2 0-8 8-15 16-15l131 0c10 0 16 8 16 17l0 222c0 10-8 16-16 16z"/>
<glyph glyph-name="bin-full" unicode="&#80;" d="M120 33c0 0 9-36 47-36l178 0c38 0 47 36 47 36l36 343-344 0z m205 291c0 8 8 16 17 16 8 0 16-8 16-16l-16-258c0-8-9-16-17-16-8 0-16 8-16 16z m-86 0c0 8 9 16 17 16 8 0 17-8 17-16l0-258c0-8-9-16-17-16-8 0-17 8-17 16 0 0 0 258 0 258z m-69 16c9 0 17-8 17-16l16-258c0-8-8-16-16-16-8 0-17 8-17 16l-16 258c0 8 8 16 16 16z m247 103l-75 0 0 36c0 25-9 33-36 33l-103 0c-22 0-33-11-33-33l0-33-75 0c-13 0-27-11-27-25 0-14 11-25 27-25l322 0c13 0 27 11 27 25 0 11-14 22-27 22z m-111 0l-103 0 0 33 103 0z"/>
<glyph glyph-name="bin-empty" unicode="&#81;" d="M424 451l-69 0 0 44c0 9-9 17-17 17 0 0-3 0-3 0l-158 0c-11 0-20-6-20-17l0-44-67 0c-22 0-36-14-36-34l0-55 31 0 0-326c0-19 14-33 33-33l276 0c19 0 36 14 36 33l0 323 31 0 0 58c-3 20-17 34-37 34z m-233 30l133 0 0-27-133 0z m206-448c0-2 0-2-3-2l-276 0c-3 0-3 0-3 2l0 326 282 0z m30 359l-339 0 0 25c0 3 0 3 2 3l334 0c3 0 3 0 3-3z m-111-69l33 0 0-262-33 0z m-75 0l33 0 0-262-33 0z m-73 0l34 0 0-262-34 0z"/>
<glyph glyph-name="info-ico" unicode="&#84;" d="M257 512c-142 0-257-115-257-257 0-142 115-257 257-257 142 0 257 115 257 257 0 142-117 257-257 257z m0-466c-115 0-209 94-209 209 0 115 92 211 209 211 117 0 209-94 209-209 0-115-94-211-209-211z m0 358c-16 0-32-14-32-32 0-16 14-32 32-32 16 0 32 14 32 32-2 18-16 32-32 32z m0-89c-14 0-25-12-25-26l0-165c0-14 11-25 25-25 14 0 25 11 25 25l0 165c0 14-11 26-25 26z"/>
<glyph glyph-name="insta-ico" unicode="&#85;" d="M503 381c-2 33-17 64-40 86-26 24-58 37-93 38-82 5-165 4-248-3-53-6-97-45-109-98-12-43-9-240-2-283 6-54 47-99 101-110 40-10 235-9 279-1 55 6 100 47 110 101 10 43 6 231 2 270z m-46-250c-5-42-38-74-80-77-41-4-222-6-260 4-33 8-58 37-62 71-6 85-6 170 0 254 4 42 38 74 80 76 82 6 165 6 247 0 42-4 74-38 76-80 5-83 5-166-1-248z m-201 253c-52 0-100-31-120-79-20-49-9-104 28-142 37-37 93-48 141-28 48 20 80 68 80 120 0 34-14 67-38 91-24 25-57 38-91 38z m0-212c-34 0-64 20-77 52-13 31-6 67 19 91 24 24 60 31 91 17 31-13 51-44 51-78-1-46-39-82-85-82z m165 217c0-16-14-30-30-30-17 0-30 14-30 30 0 17 13 31 30 31 16-1 29-14 29-30z m82-8c-2 33-17 64-40 86-26 24-58 37-93 38-82 5-165 4-248-3-53-6-97-45-109-98-12-43-9-240-2-283 6-54 47-99 101-110 40-10 235-9 279-1 55 6 100 47 110 101 10 43 6 231 2 270z m-46-250c-5-42-38-74-80-77-41-4-222-6-260 4-33 8-58 37-62 71-6 85-6 170 0 254 4 42 38 74 80 76 82 6 165 6 247 0 42-4 74-38 76-80 5-83 5-166-1-248z m-201 253c-52 0-100-31-120-79-20-49-9-104 28-142 37-37 93-48 141-28 48 20 80 68 80 120 0 34-14 67-38 91-24 25-57 38-91 38z m0-212c-34 0-64 20-77 52-13 31-6 67 19 91 24 24 60 31 91 17 31-13 51-44 51-78-1-46-39-82-85-82z m165 217c0-16-14-30-30-30-17 0-30 14-30 30 0 17 13 31 30 31 16-1 29-14 29-30z"/>
<glyph glyph-name="lessions-ico" unicode="&#86;" d="M446 9c-8 0-16 6-16 12 0 15-19 28-42 28l-322 0c-7 0-15 6-15 12l0 430c0 6 8 12 15 12l322 0c38 0 71-23 71-54l0-430c2-4-6-10-13-10z m-364 63l306 0c16 0 29-4 42-9l0 388c0 15-19 29-42 29l-306 0z m364-68c-10 0-20 7-20 17 0 13-17 25-38 25l-322 0c-9 0-19 7-19 17l0 428c0 10 10 17 19 17l322 0c42 0 77-26 77-57l0-430c0-10-10-17-19-17z m-380 495c-5 0-9-4-9-8l0-430c0-4 6-8 9-8l322 0c27 0 48-15 48-34 0-4 6-8 10-8 5 0 9 4 9 8l0 432c0 27-30 48-67 48z m364-440c0 0-2 0-2 0-13 6-28 9-40 9l-306 0c-2 0-6 2-6 6l0 406c0 2 2 6 6 6l306 0c27 0 48-16 48-35l0-388c0-2 0-4-2-4-2 0-2 0-4 0z m-344 19l302 0c12 0 25-2 38-8l0 381c0 14-17 25-38 25l-302 0z m80 105l180 0 0-25-180 0z m180-31l-180 0c-2 0-6 2-6 6l0 25c0 2 2 5 6 5l180 0c2 0 6-2 6-5l0-25c0-4-2-6-6-6z m-175 10l172 0 0 15-172 0z m-5 242l180 0 0-25-180 0z m180-29l-180 0c-2 0-4 2-4 4l0 25c0 2 2 5 5 5l181 0c2 0 6-2 6-5l0-25c-2-2-4-4-8-4z m-175 10l172 0 0 15-172 0z m-5-92l180 0 0-25-180 0z m180-28l-180 0c-2 0-6 1-6 5l0 25c0 2 2 6 6 6l180 0c2 0 6-2 6-6l0-25c0-4-2-5-6-5z m-175 9l172 0 0 15-172 0z"/>
<glyph glyph-name="levels-ico" unicode="&#87;" d="M94 0c-31 0-57 26-57 57l0 159c0 31 26 55 57 55 31 0 56-25 56-56l0-160c-1-29-25-55-56-55z m158 0c-31 0-57 26-57 57l0 290c0 31 26 57 57 57 31 0 56-26 56-57l0-290c0-31-25-57-56-57z m166 0c-31 0-56 26-56 57l0 398c0 31 25 57 56 57 31 0 57-26 57-57l0-398c0-31-26-57-57-57z"/>
<glyph glyph-name="like-ico" unicode="&#88;" d="M500 238c7 9 12 22 12 34 0 27-22 52-52 52l-98 0c10 29 15 69 15 86l0 17c0 39-32 69-69 69l-18 0c-7 0-14-5-17-12l-7-37c-12-52-54-111-99-121-7 17-27 32-46 32l-104 0c-10 0-17-7-17-17l0-308c0-10 7-17 17-17l104 0c19 0 37 12 46 30l59-20c20-8 40-10 60-10l142 0c27 0 52 22 52 52 0 7-2 12-2 19 22 5 36 27 36 50 0 12-4 24-12 34 8 10 12 22 12 35-2 12-7 24-14 32z m-362-170c0-10-8-18-17-18l-87 0 0 274 87 0c9 0 17-8 17-18z m290 152l35 0c10 0 17-7 17-17 0-10-7-17-17-17l-35 0c-10 0-17-8-17-17 0-10 7-18 17-18l35 0c10 0 17-7 17-17 0-10-7-17-17-17l-35 0c-10 0-17-7-17-17 0-10 7-18 17-18 10 0 18-7 18-17 0-10-8-17-18-17l-142 0c-18 0-32 2-50 7l-64 23 0 214c27 5 54 22 77 49 22 27 41 64 49 96l5 25 5 0c19 0 34-15 34-35l0-17c0-22-7-67-17-86l-35 0c-9 0-17-8-17-18 0-9 8-17 17-17l170 0c10 0 18-7 18-17 0-10-8-17-18-17l-34 0c-10 0-17-8-17-17 0-10 9-18 19-18z m-305-101c0-10-9-19-20-19-10 0-19 9-19 19 0 11 9 20 19 20 11 0 20-9 20-20z"/>
<glyph glyph-name="menu-ico" unicode="&#48;" d="M257 512c-141 0-257-116-257-257 0-141 116-257 257-257 141 0 257 116 257 257-2 141-116 257-257 257z m-84-338l-48 0 0 46 46 0 0-46z m0 59l-48 0 0 46 46 0 0-46z m0 57l-48 0 0 48 46 0 0-48z m214-116l-203 0 0 46 203 0z m0 59l-203 0 0 46 203 0z m0 57l-203 0 0 48 203 0z"/>
<glyph glyph-name="money-bg" unicode="&#50;" d="M256 0c-140 0-256 114-256 256 0 142 116 256 256 256 142 0 256-116 256-256 0-140-114-256-256-256z m0 503c-136 0-247-111-247-247 0-138 111-247 247-247 138 0 247 109 247 247 0 136-109 247-247 247z m0-24c-123 0-223-100-223-223 0-123 100-223 223-223 123 0 223 100 223 223 0 123-98 223-223 223z m53-308c-11-9-25-16-42-18l0-28-22 0 0 28c-17 2-31 9-39 18-11 11-16 26-16 46l27 0c0-16 4-27 11-31 6-7 17-9 26-9 13 0 22 2 28 9 7 7 11 13 11 24 0 9-2 15-9 22-6 6-15 11-30 15-20 7-33 13-44 24-11 11-13 22-13 40 0 15 4 28 13 39 9 11 22 15 37 18l0 30 22 0 0-33c15-2 29-8 37-19 9-11 13-27 13-44l-28 0c0 13-2 22-9 31-6 6-15 11-24 11-11 0-20-3-26-9-7-7-9-13-9-24 0-9 2-18 9-22 6-7 15-11 31-15 19-7 35-14 43-25 9-8 13-21 13-39 5-17-2-28-10-39z"/>
<glyph glyph-name="msg-ico" unicode="&#51;" d="M333 314l-148 0c-8 0-15-5-15-15l0-90c0-8 6-15 15-15l15 0 0-28 40 28 93 0c7 0 14 6 14 15l0 90c-1 10-7 15-14 15z m-26-92l-98 0 0 15 98 0z m0 24l-98 0 0 15 98 0z m0 26l-98 0 0 14 98 0z m-50 240c-142 0-257-115-257-257 0-142 115-257 257-257 142 0 257 115 257 257 0 142-117 257-257 257z m103-211l0-90c0-17-13-30-29-30l-87 0-61-42 0 42c-17 0-28 13-28 30l0 90c0 17 13 30 30 30l148 0c7 0 14-4 20-9 6-6 7-13 7-21z"/>
<glyph glyph-name="noti-circle-ico" unicode="&#52;" d="M270 359c-2 5-8 9-15 9-7 0-13-4-15-9 10 1 22 1 30 0z m-15-207c2 0 6 0 7 0 10 3 17 11 21 20l-54 0c2-11 13-20 26-20z m2 360c-142 0-257-115-257-257 0-142 115-257 257-257 142 0 257 115 257 257-2 142-117 257-257 257z m105-329c-3-4-11-7-16-7 0 0-48 0-48 0-2-15-13-28-30-32-4 0-7-2-11-2-20 0-37 13-41 32l-46 0c-5 0-13 2-17 7-3 4-5 11-5 19 0 5 2 11 5 14 6 4 8 6 21 8 0 0 2 0 3 0 0 0 2 2 2 2 2 3 2 7 2 11 0 3 0 7 0 13 0 3 0 9 0 13 0 13 0 25 2 38 2 12 6 24 13 36 7 9 17 16 28 20 2 0 3 2 3 4 0 1 0 3 2 3 2 4 4 8 6 10 5 5 13 9 20 9 15 0 28-11 30-26 16-6 29-17 37-32 9-20 9-42 9-64 0-13 0-28 4-35 0-2 1-4 3-6 2 0 2 0 4-2 2 0 4 0 5 0 4 0 6-2 8-2 2-1 4-1 5-3 4-4 6-8 6-11 2-6 0-13-4-17z m-11 20c-2 2-4 4-7 4-2 0-2 0-4 0-7 2-13 6-17 11-1 4-1 6-3 9 0 4-2 6-2 10 0 7 0 16 0 24 0 1 0 5 0 7 0 17 0 33-7 48-8 17-23 26-39 28-22 3-52 0-67-19 0-2-2-2-2-3-13-19-13-45-13-65 0-7 0-15 0-20 0-8-1-15-3-23-2-5-8-9-15-9-2 0-4 0-6 0-5 0-11-4-11-11 0-4 0-5 4-7 2-2 4-4 7-4l178 0c2 0 3 0 5 2 4 2 6 5 6 9 0 2 0 4 0 6-2 1-4 3-4 3z"/>
<glyph glyph-name="noti-ico" unicode="&#53;" d="M469 128c0 8-4 20-11 24-4 4-8 8-12 8-4 3-12 3-16 3-4 0-8 0-12 0-4 0-4 0-8 4-4 4-8 8-8 12-7 16-7 44-7 75 0 43 0 95-20 138-16 31-43 55-79 67-4 27-31 51-63 51-16 0-31-8-43-20-4-4-12-11-12-19 0-4 0-8-4-8 0-4-4-8-8-8-24-8-47-24-59-43-16-24-24-48-28-75-3-28-3-55-7-83 0-8 0-20 0-28 0-7 0-15 0-27 0-8 0-16-4-24 0 0 0-4-4-4 0 0-4 0-8 0-24-4-32-8-43-15-8-12-12-20-12-36 0-12 4-31 12-39 7-8 23-16 35-16l102 0c8-39 44-67 87-67 8 0 16 0 24 4 31 8 55 35 63 67 0 0 102 0 102 0 12 0 28 4 35 16 8 11 12 27 8 43z m-236 354c16 0 28-7 32-19-20 4-44 4-63 0 3 12 19 19 31 19z m16-456c-4 0-12 0-16 0-28 0-51 19-59 43l114 0c0-24-16-39-39-43z m185 70c-4-3-8-3-12-3l-374 0c-8 0-12 0-16 7-4 8-8 8-8 16 0 12 12 24 24 24 4 0 8 0 12 0 16 0 23 12 31 20 8 11 8 31 8 47 0 16 0 31 0 43 0 43-4 102 28 138 0 4 4 4 4 8 31 43 94 47 141 39 32-4 63-23 79-59 16-31 16-71 16-102 0-4 0-12 0-16 0-16 0-35 0-51 0-8 0-12 4-20 0-8 4-12 8-20 8-11 19-23 35-23 4 0 4 0 8 0 8 0 12 0 16-8 4-4 4-4 4-8 0-4 0-8 0-12 0-8-4-16-8-20z"/>
<glyph glyph-name="ok-ico" unicode="&#54;" d="M256 0c-140 0-256 114-256 256 0 142 116 256 256 256 140 0 256-116 256-256 0-140-114-256-256-256z m0 503c-136 0-247-111-247-247 0-138 111-247 247-247 136 0 247 109 247 247 0 136-109 247-247 247z m0-24c-123 0-223-100-223-223 0-123 100-223 223-223 123 0 223 100 223 223 0 123-98 223-223 223z m-18-326l-89 92 33 33 56-59 119 118 32-33z"/>
<glyph glyph-name="order-ico" unicode="&#55;" d="M98 359c0-27-22-49-49-49-27 0-49 22-49 49 0 27 22 49 49 49 27 0 49-22 49-49z m206 0c0-27-22-49-49-49-27 0-49 22-49 49 0 27 22 49 49 49 27 0 49-22 49-49z m206 0c0-27-22-49-49-49-27 0-49 22-49 49 0 27 22 49 49 49 27 0 49-22 49-49z m-412-206c0-27-22-49-49-49-27 0-49 22-49 49 0 27 22 49 49 49 27 0 49-22 49-49z m206 0c0-27-22-49-49-49-27 0-49 22-49 49 0 27 22 49 49 49 27 0 49-22 49-49z m206 0c0-27-22-49-49-49-27 0-49 22-49 49 0 27 22 49 49 49 27 0 49-22 49-49z"/>
<glyph glyph-name="pause-ico" unicode="&#56;" d="M135 508l95 0 0-504-95 0z m150 0l95 0 0-504-95 0z"/>
<glyph glyph-name="phone-ico" unicode="&#57;" d="M468 287c-17-32-37-62-62-89-7-9-14-18-22-26-43-47-93-89-147-123-27-16-56-28-87-35-22-5-45-7-67-4-18 2-35 12-44 28-8 12-18 27-26 40-2 5-4 10-5 15-3 12 2 24 13 30l39 27 48 31c4 3 8 5 12 8 15 9 34 5 44-9 6-8 12-16 18-24 1-2 3-4 4-5 3-4 7-7 11-8 5-1 10 0 13 3 21 10 39 23 56 39 33 28 62 60 87 96 4 5 7 11 10 17 3 4 5 9 4 14-1 6-4 10-8 13-5 4-11 8-16 12-5 3-10 7-15 12-13 10-16 29-7 43 7 11 14 22 21 32 14 21 27 40 40 61 5 9 13 16 23 18 10 2 20 0 28-6 13-7 24-14 36-22 19-12 32-33 33-56 1-9 8-53-34-132z m-345-19c-6 0-10 5-10 11 1 31 15 60 38 81 19 18 45 28 72 28 3 0 5-2 7-4 2-2 3-5 3-7-1-6-6-10-11-10-21 0-42-8-57-22-19-17-31-42-32-67 0-6-5-10-10-10z m-51 0c-3 0-6 1-8 3-1 2-2 5-2 7 1 88 72 159 160 161 6 0 10-5 11-11 0-5-5-10-11-10-76-2-138-64-140-140 0-3-1-5-3-7-2-2-5-3-7-3z m99 0c-2 0-5 1-7 3-2 2-3 5-3 7 2 33 28 59 61 61 4 1 8-1 10-5 2-3 2-7 0-11-2-3-6-5-10-5-22-1-39-19-40-40 0-6-5-10-11-10z"/>
<glyph glyph-name="phone-circle-ico" unicode="&#33;" d="M256 510c-140 0-254-114-254-254 0-140 114-254 254-254 140 0 254 114 254 254 0 67-27 132-74 180-48 47-113 74-180 74z m-15-144c3 0 5-3 5-6 0-3-2-6-5-7-49 0-88-40-89-88 0-4-3-7-6-7-4 1-7 3-7 7 2 55 46 100 102 101z m0-45c-14 0-26-5-36-14-12-11-19-26-20-42 0-4-3-7-6-7-2 0-4 1-5 3-1 1-2 3-2 4 1 20 10 38 24 52 12 11 29 17 45 17 2 0 4-1 5-2 1-1 2-3 2-5 0-2-1-3-3-5-1-1-3-1-5-1z m7-24c0-2-1-3-2-5-1-1-3-2-5-2-14 0-25-12-26-26 0-3-3-6-7-6-3 0-6 3-6 7 1 20 18 37 38 38 2 0 4 0 5-2 1-1 2-2 2-4z m149-27c-11-20-24-39-39-56-5-5-10-11-15-16-27-30-58-56-92-78-17-10-36-18-55-22-14-4-29-5-43-3-11 1-22 8-28 18-5 8-11 17-16 24-1 3-3 6-3 9-2 8 1 15 8 19l24 17 29 21c3 2 5 3 8 5 10 6 22 3 28-7l12-15 3-3c5-6 8-6 15-3 13 6 25 14 36 24 20 18 39 38 54 61 3 3 5 7 7 11 2 2 2 5 2 9-1 3-3 5-5 7-3 3-7 5-10 8-3 2-6 4-9 7-9 7-11 19-4 28 4 7 9 13 13 20 9 13 17 26 26 38 2 6 8 10 14 12 6 1 13 0 18-4 7-4 15-9 22-14 12-8 20-21 21-36 2-28-6-57-21-81z"/>
<glyph glyph-name="picture-ico" unicode="&#34;" d="M500 448c-9 8-19 13-30 13l-425 0c-14 0-24-5-31-13-9-8-13-18-13-30l0-324c0-12 4-22 13-31 9-9 19-13 31-13l425 0c12 0 22 4 30 13 9 9 13 19 13 31l0 324c-2 12-6 22-13 30z m-22-354c0-3-2-5-3-6-2-2-5-3-6-3l-426 0c-3 0-4 1-6 3-1 1-3 4-3 6l0 324c0 3 2 5 3 6 2 2 5 3 6 3l426 0c3 0 4-1 6-3 1-1 3-4 3-6z m-359 196c15 0 27 5 37 15 10 10 15 22 15 37 0 15-5 26-15 37-10 10-22 14-37 14-14 0-26-4-36-14-11-11-15-22-15-37 0-15 4-27 15-37 10-10 23-15 36-15z m78-76l-44 43-85-85 0-52 376 0 0 119-112 112z"/>
<glyph glyph-name="play-circle" unicode="&#35;" d="M256 512c-142 0-256-114-256-256 0-142 114-256 256-256 142 0 256 114 256 256 0 142-114 256-256 256z m116-271l-148-99c-13-9-28 0-28 15l0 198c0 15 15 24 28 15l148-99c11-6 11-24 0-30z"/>
<glyph glyph-name="plus-circle-ico" unicode="&#37;" d="M256 512c-141 0-256-115-256-256 0-141 115-256 256-256 141 0 256 115 256 256 0 141-115 256-256 256z m0-490c-130 0-234 106-234 234 0 128 104 234 234 234 130 0 234-106 234-234 0-128-106-234-234-234z m128 263l-99 0 0 99c0 16-13 29-29 29-16 0-29-13-29-29l0-99-99 0c-16 0-29-13-29-29 0-16 13-29 29-29l99 0 0-99c0-16 13-29 29-29 16 0 29 13 29 29l0 99 99 0c16 0 29 13 29 29 0 16-13 29-29 29z"/>
<glyph glyph-name="plus-ico" unicode="&#38;" d="M256 9c-20 0-38 18-38 38l0 422c0 21 18 39 38 39 20 0 38-18 38-39l0-422c0-20-18-38-38-38z m-249 249c0 20 18 38 38 38l422 0c20 0 38-18 38-38 0-20-18-38-38-38l-422 0c-20 0-38 18-38 38z"/>
<glyph glyph-name="present-ico" unicode="&#39;" d="M463 395l-51 0c7 12 11 25 11 38 0 44-35 79-79 79-26 0-45-10-61-29-10-14-19-34-27-55-9 21-17 41-27 55-16 19-35 29-61 29-44 0-79-35-79-79 0-14 4-27 11-38l-51 0c-27 0-49-22-49-50l0-29c0-20 11-37 29-45l0-222c0-27 22-49 50-49l354 0c27 0 50 22 50 49l0 222c18 7 29 25 29 44l0 30c0 27-22 50-49 50z m10-50l0-29c0-5-4-10-10-10l-143 0 0 50 143 0c6-1 10-6 10-11z m-29-78l0-218c0-5-5-9-10-9l-114 0 0 227z m-156 133c24 60 31 72 57 72 21 0 39-17 39-39 0-21-18-38-39-38l-60 0 3 5-5 2z m-160 33c0 22 18 39 39 39 26 0 33-12 57-72l3-6-60 0c-21 1-39 18-39 39z m104-394l0 316 49 0 0-316z m-40 316l0-49-143 0c-5 0-9 4-9 9l0 30c0 5 4 9 9 9l143 0z m0-88l0-228-113 0c-6 0-10 4-10 10l0 218z"/>
<glyph glyph-name="pricesie-ico" unicode="&#40;" d="M74 252l0 200c-1 18 10 34 27 38 2 1 4 1 7 1l212 0c1 0 3-1 4-2l79-90 34-40c2-1 2-4 2-6l0-269c0-9 0-18 0-26 0-19-12-36-29-43-4-1-8-1-12-1l-290 0c-18 0-32 14-34 32 0 2 0 4 0 7z m17 0l0-197c0-1 0-2 0-3-1-5 1-10 4-14 4-3 8-5 13-6 97 0 193 0 290 0 1 0 3 0 4 0 13 4 22 15 21 29 0 94 0 189 0 284 0 3 0 3-3 3l-78 0c-2 0-4 0-5 0-13 4-22 17-21 30 0 30 0 60 0 90 0 3-1 3-3 3l-204 0c-8 0-15-4-17-11-1-4-1-7-1-10 0-66 0-132 0-198z m120-88l40 0c1 0 2-1 2-2 0-1 0-2-1-2-6-8-12-16-18-23l-47-59c-2-2-3-2-5 0l-65 81c-1 1-2 2-1 4 1 0 2 1 3 1 12 0 24 0 37 0l2 0 0 87c0 4 0 5 4 5l45 0c3 0 4-1 4-5z m145 9l0-88c0-4 0-4-3-4l-45 0c-3 0-4 0-4 4l0 84c0 5 0 4-3 4l-36 0c-2 0-2 1-3 1 0 2 0 3 1 4 6 7 12 15 19 23l46 58c2 2 3 2 4 0l65-81 2-1c0-2 0-4-2-4l-41 0z m-164 162l-9-12-7-10c-1-2-3-3-5-3l-46 0c-3 0-5 1-5 4-2 2-1 5 0 7l30 41 11 17-15 21c-8 12-17 25-25 37-1 2-2 4-2 6 0 3 3 5 6 5 15 0 30 0 46 0 2 0 4-1 5-3l14-20c0-1 1-1 2-2 3 3 5 7 8 10l8 12c1 2 3 3 6 3 15 0 29 0 44 0 3 1 5-1 6-4 1-2 1-5-1-8-13-18-26-36-39-55l-1-2c2-4 5-8 7-11l32-45c2-3 3-6 2-10-1-3-4-3-7-3l-43 0c-3-1-5 1-6 3l-14 20z m-55 100l1-2c26-36 51-73 77-108 1-1 2-2 3-2l29 0-9 13-69 97c0 1-1 2-2 2z m78-46l32 45-3 0c-8 0-15 0-23 0-4 1-7-1-9-5-4-6-8-12-13-18z m-46-20l-32-46 3 0c8 0 16 0 24 0 3 0 6 2 7 4 4 7 9 13 13 20z"/>
<glyph glyph-name="products-ico" unicode="&#41;" d="M80 169l-21 0c-4-1-8 3-8 7-1 1 0 2 0 3l30 70c1 3 4 5 8 5l3 0c-2 2-4 5-5 8 0 1 0 2 0 3 0 42 0 84 0 127 0 3 2 4 4 4 2 0 4-1 4-4 0-3 0-8 0-12l59 0 0 24c0 2-1 4-2 6-2 1-4 2-6 2l-45 0c-3 0-6-3-7-6 0-2-2-4-4-3-1 0-2 0-3 1 0 1 0 2 0 3 1 6 5 10 10 12l2 0 0 5c-1 2 0 4 1 5 2 2 3 2 5 2l1 0 0 28c0 2 1 4 2 6 2 1 4 2 6 2 6 0 13 0 20 0 2 0 4-1 6-2 1-2 2-4 2-6l0-28 1 0c2 0 4 0 5-2 1-1 2-2 2-4l0-6c3 0 5-2 8-4 2-3 3-6 3-9 0-7 0-13 0-20l0-58 40 0c12 0 24-9 26-22 0-2 0-4 0-5l0-31c0-6-1-11-5-15l7 0c1 3 2 3 5 3l27 0c5 0 9 5 10 10 0 1 0 1 0 2l0 146c0 7-4 15-12 17-1 1-3 1-5 1l-62 0c-5 0-9-1-12-5-4-3-6-8-5-12 0-26 0-52 0-78 0-1 0-1 0-2 0-1-1-2-1-2-1-1-2-1-3-1-1 0-2 0-3 1 0 0-1 1-1 2 0 8 0 16 0 24l0 56c0 13 11 24 24 25l1 0 0 9c0 1 1 3 2 5 2 1 4 2 5 2l7 0 0 17-8 0c-2 0-3 1-4 2-1 1-2 2-2 4l0 16c0 1 1 2 2 3 1 1 2 2 3 2 16 0 31 0 47 0 10-1 19-3 28-8 4-3 9-5 13-8 3-1 4-4 3-7 0-2-3-4-6-4l-42 0 0-17 6 0c2 0 4-1 5-2 2-2 2-4 2-6l0-8c2 0 4-1 7-1 11-2 18-12 18-24l0-14c2 0 4-1 6-1 1 0 1 1 2 1 5 8 11 16 17 23 3 6 11 9 17 8 17-4 34-6 51-9 5-1 9-5 11-11 3-10 6-20 9-30 0-1 1-1 2-1l49-9c3 0 6-2 9-5 2-3 3-7 2-11-3-20-7-41-10-61-3-15-5-29-8-44 0-1 0-2 1-3 1 0 2-1 2-2 10-25 20-49 30-73 0-3 0-5-1-7-2-2-4-4-7-4-2 0-5 0-8 0-2 0-8 0-12 0-1 0-2 0-2-2l0-139c1-3 0-5-2-7-2-2-4-3-7-3l-339 0c-1 0-3 0-4 0-4 1-6 5-6 8z m256 35l0-2-12-27c-1-4-6-7-10-7l-219 0 0-139 241 0z m-271-24l248 0c1 0 2 1 2 2 7 16 14 32 21 49l5 10-249 0c-1 0-2-1-2-2l-23-53z m288 31l0-182 68 0 0 136-39 0c-3-1-6 1-8 5l-16 31c-1 3-3 6-5 10z m99-34c0 1 0 1 0 2l-25 60c0 1-1 2-2 2l-73 0 1-2 29-61c0 0 1-1 2-1l68 0z m-336 115l0-26c0-2 1-4 2-6 2-1 4-2 6-2l88 0c2 0 4 1 5 2 2 2 2 4 2 6l0 24c0 1 0 1 0 2z m254-18l57-10 11 64-57 10c9-22 4-47-11-64z m-91 91l8-1c1 0 3 0 4 1 27 18 64 12 83-15 1-1 1-1 2-2 3 0 6-1 9-1l45-8 10-2c1 8 3 16 4 24 0 1 0 2-1 3-1 1-2 1-3 2l-18 3-66 11-64 11-13 2z m46-101c2 0 5 0 8 0 24 4 42 24 43 48 1 25-15 46-38 52-23 7-48-4-59-26 0-1 0-2 0-2l0-41c0-1 0-2 0-3 9-17 26-28 46-28z m-231 108l0-35 60 0 0 35z m22-72l103 0c0 1 0 3 0 5-2 9-10 15-19 15l-64 0c-1 0-3 0-4 0-10-2-17-11-16-20z m179 100l86-15c0 1 0 1 0 1-3 9-5 17-8 26 0 2-2 4-4 4-17 2-34 5-52 8-2 1-5 0-6-2-3-5-7-9-10-14z m-201-71l0-63c0-2 1-4 2-6 1-1 3-2 5-2 3 0 4-1 5-4l8 0c-4 4-6 9-5 14 0 11 0 23 0 34 0 13 10 24 23 25 6 0 13 0 19 0l3 0 0 2z m178-75l152 0c1 0 1 1 1 1 0 0 0 0 0 0l-7 1-56 10c-1 0-2 0-3 0-9-7-21-11-33-11-18-1-35 7-46 20-1 1-1 1-1 1 2-8-1-16-7-22z m3 229l-6 4c-9 5-18 7-28 7l-41 0 0-11z m-161-51l20 0 0 28-19 0c-1 0-2 0-1-2l0-27z m132 18l-46 0 0-8 46 0z m-32 25l0-17 18 0 0 17z m-72-51l-36 0 0-4 36 0z m109-78c0-5 0-10 0-15 0-9-5-17-13-22-1-1-2-1-3-1-1 0-2 1-2 2-1 1-1 2-1 3 0 1 1 2 2 2 7 4 11 11 10 18l0 26c1 11-8 20-19 21-11 1-21-6-22-17-1-2-1-3 0-5l0-20c0-1-1-2-1-3-1-1-2-1-3-1-1 0-2 0-3 1 0 0-1 1-1 3 0 8 0 16 0 24 2 15 13 26 28 26 14 0 27-10 29-24 0-5 0-9 0-13l0-5z m-98-302l-30 0c-2 0-4 1-6 3-2 2-3 4-3 6 0 15 0 30 0 44 0 3 1 5 3 7 2 2 4 3 7 3l57 0c2 0 3 0 4 0 4-1 6-5 6-8l0-45c0-3 0-5-2-7-2-1-4-2-7-2z m-25 12l50 0 0 36-50 0z m174 0l-98 0 0 16 98 0z m-98 39l38 0 0-16-38 0z m166-8l34 0 0-15-34 0z m0-23l34 0 0-15-34 0z m58 285c-3 0-7 1-11 2-2 0-4 3-3 5 0 3 3 4 5 4 4 0 7-1 11-2 2-1 4-3 3-5 0-3-2-4-5-4z m-27 14c1 0 3-1 4-2 0 0 1-2 1-3 0-2-1-4-2-5-2-1-4-1-5 0-2 1-3 3-3 5 0 1 1 3 2 3 1 1 2 2 3 2z m-76-90c-17 0-33 10-39 26-6 16-3 34 9 46 13 12 31 15 46 8 16-7 26-22 26-39-1-23-19-41-42-41z m0 9c13 0 25 8 30 20 5 12 2 27-7 36-9 9-23 12-35 7-13-5-21-17-21-30 1-18 15-33 33-33z m2 131l10-1 17-3c2 0 3-1 4-2 1-1 1-2 1-4 0-1-1-2-2-3-1-1-3-1-4-1-9 2-18 3-27 5-1 0-2 1-3 2-1 1-1 2-1 3 0 3 3 5 5 4z m-199 36c0-1-1-3-2-3-1-1-3-1-4 0-1 0-2 2-2 3 0 2 1 3 2 4 1 1 3 1 4 0 1-1 2-2 2-4z m197-111c1 0 3 0 4-1 2 0 4-2 4-5-1-2-3-4-5-4-2 0-3 0-5 0-6 0-11-5-12-11 0-2-2-4-5-4-2 0-4 2-4 4 0 1 0 2 0 3 2 11 12 18 23 18z"/>
<glyph glyph-name="products-cms" unicode="&#42;" d="M256 3c-2 0-4 0-6 2l-3 0-241 154c-4 2-6 6-6 13l0 228 4 2c0 0 2 2 2 2l5 2 230 101c2 2 4 2 6 2 3 0 5 0 7-2l247-101 2 0 3-2 2-2 2-4 0-226c0-5-2-9-7-13l-238-154c-5-2-7-2-9-2z m17 256l0-213 205 132 0 188z m-239-81l205-132 0 213-205 107z m17 213l203-106 203 106-212 86z"/>
<glyph glyph-name="profile-ico" unicode="&#43;" d="M381 370c0-68-56-124-124-124-69 0-124 56-124 124 0 69 55 124 124 124 68 0 124-55 124-124z m85-352c30 0 51 32 37 58-35 76-133 129-248 129-113 0-214-54-250-129-12-26 9-58 37-58z"/>
<glyph glyph-name="promotion-ico" unicode="&#44;" d="M232 15l-5 28c-3 15-5 30-8 45 0 1 0 1 0 2l-13-5-89-40c-7-4-15-4-22-1-8 2-14 8-17 15-19 43-38 86-58 129-5 12-10 23-15 34-2 5-2 11 0 16 12 31 24 63 36 94 1 4 5 8 9 10 5 2 10 2 14 0l99-38c4-1 8-5 10-10l20-44c0 0 1-1 1-1l0 44 85 0 0-7 11 4 123 53c1 0 2 1 2 3 1 13 12 24 26 25 14 2 26-7 30-20 1-3 1-5 1-8 0-20 0-42 0-63l0-2c12-1 24-8 31-18 8-13 9-30 3-44-6-14-19-24-34-27l0-77c0-16-12-29-28-30-16 0-29 13-29 28 0 2-1 2-2 2l-46 20-87 37-2 1 0-7-17 0c0-3 0-5 1-8l3-36c2-12 3-24 4-36l4-40 2-25c0-1 0-2 0-3z m-38 148l0 2c0 13 0 27 0 40 0 1 0 2 0 3-13 26-25 53-37 79 0 0-1 1-2 1-30 12-60 24-90 35l-8 3c0 0 0-1-1-1-12-31-24-62-36-93 0-1 0-2 0-3 3-5 5-11 8-17l66-145c1-3 3-6 6-7 3-1 6-1 9 1 35 15 71 31 106 47 0 0 1 0 1 0 0 1 0 1 0 2-3 17-5 34-8 51 0 2-1 2-3 2-4 0-7 0-11 0z m220-38l0 206-2-1-132-56c-1-1-2-2-2-3l0-86c0-1 1-2 2-3l122-52z m12 103l0-116c0-6 3-11 8-14 4-3 10-4 15-2 7 3 11 10 10 17l0 229c1 2 1 3 0 5-1 9-9 15-18 14-8-1-15-9-14-17z m-220 53l0-106 60 0 0 106z m13-118l22-135 21 0 0 1-3 28-5 50c-2 18-4 36-5 54 0 1-1 2-3 2z m253 39c16 3 27 17 26 34 0 15-11 28-26 30z m-232 287l7 0c35-4 64-28 74-61 6-22 4-46-7-66 0-1 0-2 0-2l15-46c0-1 0-1 0-2l-9 3-38 12c-1 0-2 0-2 0-12-7-26-10-39-10-33-2-63 16-78 45-7 11-10 23-11 36-2 43 27 81 69 89 4 1 9 2 13 2 1 0 2 0 2 0z m65-153l0 2c-2 6-3 13-6 20-1 3-1 7 1 10 14 24 13 55-3 77-17 23-45 34-72 28-26-5-46-23-54-48-8-25-2-52 16-70 18-19 45-27 70-20 7 2 14 5 20 9 1 0 3 0 3 0z m-247-153c-1 12 7 23 19 25 8 3 17 0 22-6 7-8 11-18 12-28 0-6-2-12-7-16-7-8-19-10-29-5-4 2-7 6-10 10-4 6-7 13-7 20z m41-14c-1 4-2 7-3 11-1 5-4 10-8 14-2 2-5 4-8 3-3 0-6-1-8-3-1-3-2-6-2-9 1-7 4-14 9-20 1-1 2-3 4-4 2-2 4-2 7-2 5 1 8 5 8 10z m94-12c-1-8-6-15-14-18-11-6-24-2-30 8-5 6-8 14-9 22-1 10 4 20 14 24 10 5 22 2 29-7 6-8 10-18 10-29z m-41 15c2-9 6-17 12-23 1-1 1-1 2-2 3-2 6-2 9 0 3 1 5 4 5 7 1 3 0 7-1 10-2 6-5 11-9 16-2 2-4 3-7 3-6 1-10-3-10-11z m-70 72c-10 0-19 7-23 16-4 9-2 20 5 27 8 8 18 10 28 6 9-4 15-13 15-24 0-6-2-13-7-17-5-5-11-8-18-8z m0 15c3 0 6 1 8 3 2 1 3 4 3 7 0 6-5 10-10 10-6 0-10-4-11-10 0-5 4-10 10-10z m34-152c0 5 1 9 1 13 0 9 1 18 1 26 1 13 2 26 3 39l1 26c0 7 1 13 1 20 0 1 1 2 2 2l9 4c0-1 0-2 0-3l-2-33c-1-13-2-27-2-40-1-14-2-26-3-40 0-2 0-5 0-8 0-1 0-1 0-1-4-2-7-3-11-5z m145 303l15 0 0-14-15 0z m-30 0l15 0 0-14-15 0z m-15 0l0-14-14 0 0 14z"/>
<glyph glyph-name="qr-ico" unicode="&#45;" d="M15 352c8 0 16 7 16 16l0 84c0 17 13 30 30 30l84 0c8 0 15 7 15 15 0 9-7 15-16 15l-84 0c-33 0-60-27-60-60l0-84c0-9 7-16 15-16z m129-322l-84 0c-17 0-30 13-30 30l0 84c0 8-7 16-15 16-9 0-15-8-15-16l0-84c0-33 27-60 60-60l84 0c8 0 16 7 16 15 0 9-7 15-16 15z m353 130c-8 0-15-7-15-16l0-84c0-17-13-30-30-30l-84 0c-8 0-16-7-16-15 0-9 7-16 16-16l84 0c33 0 60 27 60 60l0 85c0 8-7 16-15 16z m-45 352l-84 0c-8 0-15-7-15-15 0-9 7-16 15-16l85 0c16 0 30-13 30-30l0-84c0-8 6-15 15-15 9 0 15 6 15 15l0 85c-1 33-28 60-61 60z m-393-79l0-142c0-10 9-19 19-19l142 0c10 0 19 9 19 19l0 142c0 10-9 19-19 19l-142 0c-10 0-19-9-19-19z m30-11l120 0 0-120-120 0z m202-150l142 0c10 0 19 9 19 19l0 142c0 10-9 19-19 19l-142 0c-10 0-19-9-19-19l0-142c0-11 9-19 19-19z m11 150l120 0 0-120-120 0z m-81-182l-142 0c-10 0-19-9-19-19l0-142c0-10 9-19 19-19l142 0c10 0 19 9 19 19l0 142c0 10-9 19-19 19z m-11-150l-120 0 0 120 120 0z m160-15c0-8 6-16 15-16l49 0c10 0 19 9 19 19l0 47c0 7-7 15-16 15-8 0-15-7-15-15l0-36-38 0c-8 1-14-6-14-14z m-197 328l-46 0c-10 0-18-8-18-18l0-46c0-10 8-18 18-18l46 0c10 0 18 8 18 18l0 46c-1 10-9 18-18 18z m-13-52l-22 0 0 23 22 0z m186-176c0 8-6 15-15 15l-36 0c-11 0-19-8-19-18l0-46c0-8 7-15 16-15 8 0 15 6 15 15l0 35 25 0c8-1 14 5 14 14z m-58 31l91 0 0-66-38 0c-8 0-15-7-15-15 0-9 6-16 15-16l52 0c8 0 16 8 16 16l0 92c0 11-9 19-19 19l-102 0c-8 0-16-7-16-16 0-8 7-14 16-14z m149-46c8 0 16 6 16 15l0 46c0 8-7 15-16 15-8 0-15-6-15-15l0-46c0-9 7-15 15-15z m-77-85c0 8-7 15-16 15l-57 0c-8 0-15-7-15-15 0-9 6-16 15-16l57 0c8 1 16 8 16 16z m26 328l-47 0c-10 0-18-8-18-18l0-46c0-10 8-18 18-18l47 0c9 0 17 8 17 18l0 46c0 10-8 18-17 18z m-12-52l-23 0 0 23 23 0z m-248-242l46 0c10 0 18 8 18 17l0 47c0 10-8 18-18 18l-46 0c-10 0-18-8-18-18l0-47c0-9 8-17 18-17z m12 52l23 0 0-23-23 0z"/>
<glyph glyph-name="questions-ico" unicode="&#46;" d="M257 512c-142 0-257-115-257-257 0-142 115-257 257-257 142 0 257 115 257 257 0 142-117 257-257 257z m83-362c0-4-4-8-9-8-4 0-9 4-9 8 0 5-8 9-15 9l-126 0c-4 0-9 4-9 7l0 170c0 4 4 8 9 8l128 0c16 0 31-11 31-24z m-31 179l-120 0 0-157 120 0c5 0 9 0 14-2l0 150c0 5-7 9-14 9z m-13-124c0-2-2-4-4-4l-72 0c-2 0-4 2-4 4l0 9c0 2 2 4 4 4l72 0c2 0 4-2 4-4z m0 45c0-2-2-4-4-4l-72 0c-2 0-4 2-4 4l0 9c0 2 2 3 4 3l72 0c2 0 4-1 4-3z m0 42c0-2-2-2-4-2l-72 0c-2 0-2 2-2 2l0 9c0 2 2 4 4 4l72 0c2 0 4-2 4-4l0-9z"/>
<glyph glyph-name="star-ico" unicode="&#47;" d="M269 492l69-136c1-5 6-8 11-8l150-22c13-2 18-18 8-26l-109-106c-3-3-5-8-5-13l25-150c2-13-11-22-22-16l-134 71c-5 2-10 2-15 0l-134-71c-12-6-24 3-23 16l26 150c1 5 0 10-5 13l-109 106c-10 10-5 24 8 26l150 22c5 0 10 3 11 8l68 136c10 11 26 11 30 0z"/>
<glyph glyph-name="ratio" unicode="&#58;" d="M256 0c-140 0-256 116-256 256 0 140 116 256 256 256 140 0 256-116 256-256 0-140-116-256-256-256z m0 492c-129 0-236-107-236-236 0-129 105-236 236-236 131 0 233 107 233 236 0 129-104 236-233 236z m186-236c0-103-83-186-186-186-103 0-186 83-186 186 0 103 83 186 186 186 103 0 186-83 186-186z"/>
<glyph glyph-name="ratio-non" unicode="&#59;" d="M256 0c-140 0-256 116-256 256 0 140 116 256 256 256 140 0 256-116 256-256 0-140-116-256-256-256z m0 492c-129 0-236-107-236-236 0-129 105-236 236-236 131 0 233 107 233 236 0 129-104 236-233 236z"/>
<glyph glyph-name="report-circle-ico" unicode="&#62;" d="M307 381c-4-6-11-13-19-22 0 0-1-2-1-2l49-144c2 0 2 0 4 0l19-4c3 0 5-2 9-2l-9 28z m-150-122l17-52c9 2 16 6 18 6 0 0 2 0 2 0 2 0 6-2 6-4l26-74 40 13-22 65c0 1 0 3 0 5 2 2 4 2 6 2 27 0 55-2 75-6l-48 133c-31-33-74-72-120-88z m208 60l47 20 4-8-48-21z m-16 34l23 34 8-5-23-34z m-229-107l17-50c5 2 15 5 24 7l-17 52z m137 266c-142 0-257-115-257-257 0-142 115-257 257-257 142 0 257 115 257 257-2 142-117 257-257 257z m157-165c0 0 2-1 2-1l5-15c0-2 0-4-1-6l-54-22c0 0 0 0-2 0 0 0 0 0-2 0 0 0-2 2-2 2l-5 15c0 2 0 3 2 5l53 22c2 0 4 0 4 0z m-74 8l26 39c2 2 4 2 6 2l12-10c0 0 2-2 2-2 0 0 0-1 0-1l-26-39c0-2-1-2-3-2 0 0-2 0-2 0l-13 9c0 0-2 2-2 2 0 0 0 2 0 2z m41-161c-2-2-4-2-6-2l-3 0-8 2c-2 0-5 2-9 2l-19 4c-22 3-51 7-83 7l22-61c0-2 0-4 0-4 0-2-1-2-3-3l-50-17c0 0-2 0-2 0-2 0-6 2-6 4l-25 75c-12-3-36-11-52-16-4-2-6 0-8 4l-22 61c0 1 0 3 0 3 0 2 2 2 4 4l41 15c51 18 101 68 127 98 15 16 24 27 24 29 2 2 4 2 6 2 2 0 3-2 5-4l69-196c0-3 0-5-2-7z m46 83l-4-16c0-2-2-2-3-2l-47 11c0 0-1 0-1 2 0 0 0 2 0 2l3 16c0 2 2 4 4 2l46-11c0 0 2 0 2-2 0 0 0 0 0-2z m-49-1l3 9 39-10-2-9z"/>
<glyph glyph-name="sales-off-ico" unicode="&#63;" d="M385 129c4 0 6 2 8 4l58 115 55 0c2 2 6 4 6 10 0 4-4 7-8 7l-55 0-58 116c0 2-4 4-6 4l-377-2c-4 0-8-2-8-8l0-240c0-4 4-8 8-8z m-370 239l364 2 53-106-41 0c-4 19-21 32-42 30-19-2-34-19-34-38 0-19 15-36 34-38 19-2 36 11 40 30l41 0-53-106-362 0z m340-104c-4 0-8-4-8-8 0-4 4-8 8-8l20 0c-1-7-11-15-20-15-12 0-21 8-23 21-2 11 6 23 17 25 11 2 23-4 26-15z m-234-31l-62 0 0 25 62 0z m27 72c0 10 4 17 9 23 6 8 14 10 25 10 11 0 19-4 25-10 5-6 9-13 9-23l0-7c0-10-4-17-9-23-6-6-14-10-25-10-11 0-19 4-25 10-7 4-9 13-9 23z m21-7c0-4 2-8 4-12 1-3 5-3 9-3 4 0 8 1 10 3 1 4 3 6 3 12l0 7c0 4-2 8-3 12-2 2-6 3-10 3-4 0-8-1-9-3-4-4-4-8-4-12z m17-110l-15 9 76 125 15-7z m36 28c0 10 4 17 9 23 6 6 16 9 25 9 11 0 19-3 25-9 5-6 9-13 9-23l0-7c0-10-4-17-9-23-6-6-14-10-25-10-11 0-19 4-25 10-5 6-9 13-9 23z m21-9c0-4 2-8 4-12 1-3 5-3 9-3 4 0 8 1 9 3 2 2 4 6 4 12l0 9c0 4-2 8-4 12-1 3-5 3-9 3-4 0-8-2-9-3-2-4-4-6-4-12z"/>
<glyph glyph-name="search-btn-ico" unicode="&#64;" d="M498 40l-147 146c38 43 57 103 45 166-16 79-79 140-158 154-134 22-248-91-226-224 14-81 77-146 158-160 56-10 107 6 149 35l147-148c8-8 20-8 29 0l3 4c7 7 7 19 0 27z m-450 243c-22 112 75 209 187 187 63-12 113-63 125-125 22-113-76-209-189-188-61 12-111 63-123 126z"/>
<glyph glyph-name="eye-show" unicode="&#91;" d="M508 245c-29 31-131 128-252 128-123 0-224-97-252-128-4-5-4-11 1-17l12-10c5-4 12-4 16 1 25 28 116 115 223 115 107 0 197-87 223-115 4-4 12-5 16-1l12 10c5 4 6 12 1 17z m-172-26c0-44-36-80-80-80-44 0-80 36-80 80 0 45 36 81 80 81 44 0 80-36 80-81z"/>
<glyph glyph-name="send-btn-ico" unicode="&#93;" d="M510 458c-2 3-3 3-7 5-2 0-4 0-6 0l-490-176c-3 0-7-6-7-9 0-6 2-9 5-11l100-51 35-156c0-2 2-4 2-4 0 0 1-2 1-2 2-1 4-1 6-3 2 0 2 0 4 0 3 0 5 2 7 3l94 88 104-53c3-2 5-2 9 0 3 2 5 4 7 7l138 354c0 0 0 2 0 2 0 0 0 2 0 2 0 0 0 2-2 4z m-470-184l352 125-276-163z m118-74c0-2-2-2-2-4l-9-67-20 89 213 127-180-140c2-2 0-3-2-5z m9-109l11 87 53-27z m189 23l-98 49-67 33 283 220z"/>
<glyph glyph-name="send-msg-ico" unicode="&#94;" d="M492 472c-14 14-31 23-52 23l-366 0c-40 0-74-34-74-75l0-223c0-40 31-71 69-74l0-106 151 106 218 0c40 0 74 31 74 74l0 223c0 20-6 38-20 52z m-383-380l0 68-35 0c-20 0-34 14-34 35l0 225c0 20 14 35 34 35l366 0c21 0 35-15 35-35l0-225c0-21-14-35-35-35l-231 0z m-3 297l223 0 0-40-223 0z m320-77l-60 77c-3 3-8 3-8-3l0-151c0-6 5-9 8-3l60 77c0-3 0 0 0 3z m-320 14l269 0 0-40-269 0z m0-63l223 0 0-37-223 0z"/>
<glyph glyph-name="settings-black" unicode="&#95;" d="M255 0c-7 0-15 0-22 1-11 1-20 11-20 22l0 9c0 14-9 26-23 31-8 2-16 6-24 9-13 8-30 6-41-6-17-15-24-16-41 0-8 8-17 17-25 26-7 8-7 21 0 29 2 3 5 5 7 7 10 10 12 25 6 37-4 9-7 18-11 27-5 13-17 22-31 22l-10 0c-11 1-19 9-20 19 0 16 0 31 0 46 1 10 8 18 18 20 4 0 9 0 13 0 14 0 27 9 31 23 3 9 7 18 11 27 6 12 3 27-7 36l-7 8c-7 8-7 20 0 28 10 11 22 21 32 32 8 8 22 7 30-1 3-3 6-7 10-9 9-7 21-9 31-4l30 12c13 4 21 16 21 29 1 4 1 7 0 11-1 11 7 20 18 21 16 1 33 1 49 0 6 0 10-3 14-7 3-4 5-9 4-14 0-5 0-10 0-15 2-11 10-21 22-25 9-4 18-7 27-11 11-6 24-5 34 3 3 3 7 6 10 9 7 8 18 9 26 3 13-11 25-23 36-36 7-8 6-20-2-27-3-3-6-6-9-9-8-10-10-24-4-36 5-8 8-16 12-25 4-13 15-22 28-23l10 0c6 1 12-1 16-5 5-4 7-10 7-16 0-14 0-28 0-42 0-6-2-12-7-16-4-4-10-6-16-5-20 2-38-11-41-31-2-6-5-12-8-18-7-12-5-27 5-37l7-7c8-8 9-21 2-30-10-10-21-21-31-31-4-5-11-7-17-7-6 1-12 4-16 9-7 10-19 15-31 13-16-5-32-11-47-19-9-6-14-16-12-26 1-23-10-31-31-31l-13 0z m3 125c53 1 101 34 120 84 20 50 6 107-33 144-39 36-96 45-145 23-48-23-78-73-76-126 4-71 63-126 134-125z"/>
<glyph glyph-name="settings-white" unicode="&#96;" d="M440 303l-39 0c-6 0-11 4-13 9-2 6-1 12 3 16l27 27c8 9 8 22 0 30l-35 35c-8 8-21 8-29 0l-27-27c-4-4-11-6-16-3-6 2-9 7-9 13l0 38c0 6-3 11-6 15-4 4-10 6-15 6l-49 0c-11 0-21-9-21-21l0-38c1-6-3-12-9-14-6-2-12-1-16 3l-27 28c-8 8-22 8-30 0l-34-35c-8-8-8-21 0-30l27-27c4-4 5-10 3-16-2-5-8-9-13-9l-39 0c-11 0-20-9-20-21l0-48c0-12 9-21 21-21l38 0c6 0 11-4 13-9 2-6 1-12-3-16l-27-27c-8-9-8-22 0-30l34-35c8-8 22-8 30 0l27 27c4 4 10 5 16 3 5-2 9-7 9-13l0-39c0-11 9-20 20-21l49 0c12 0 21 10 21 21l0 39c0 6 4 11 9 13 6 2 12 1 16-3l27-27c9-8 22-8 30 0l34 34c9 9 9 22 0 30l-27 27c-4 4-5 11-3 16 2 5 8 9 14 9l38 0c11 0 20 10 20 21l0 49c0 12-8 21-19 21z m5-69c0-2 0-3-1-5-1-1-3-1-4-1l-39 0c-12 0-23-7-28-19-4-11-2-24 7-32l27-27c3-3 3-7 0-9l-34-34c-1-1-3-2-4-2-2 0-3 1-5 2l-26 27c-9 9-22 12-33 7-11-5-19-16-18-28l0-39c0-1-1-3-2-4-1-1-3-1-4-1l-49 0c-2 0-3 0-4 1-1 1-2 3-2 4l0 39c0 12-7 23-18 27-4 2-8 3-12 3-8 0-15-3-20-8l-27-27c-3-3-6-3-9 0l-34 34c-2 2-2 6 0 8l27 27c9 9 11 22 7 33-5 12-16 19-28 19l-39 0c-3 0-6 2-6 5l0 48c0 4 3 6 6 6l38 0c13 0 24 7 28 19 5 11 2 24-7 32l-27 27c-2 3-2 6 0 9l35 34c1 1 2 2 4 2 2 0 3-1 4-2l27-27c9-8 21-11 33-7 11 5 18 16 18 28l0 38c0 2 1 3 2 4 1 1 3 2 4 2l49 0c2 0 3-1 4-2 1-1 2-2 2-4l0-38c0-12 7-23 19-27 11-5 24-2 32 6l27 27c1 2 3 2 4 2 2 0 3 0 4-2l35-34c2-2 2-6 0-8l-27-27c-9-9-12-22-7-33 5-11 16-19 28-19l38 0c3 0 6-2 6-5z m-189 92c-38 0-68-30-68-68 0-38 30-68 68-68 38 0 68 30 68 68 0 38-30 68-68 68z m0-121c-29 0-53 24-53 53 0 29 24 53 53 53 29 0 53-24 53-53 0-14-5-28-15-38-10-10-24-15-38-15z"/>
<glyph glyph-name="settings-circle" unicode="&#123;" d="M325 274c-2 7-3 12-7 20-2 2-2 5 0 7l13 21-11 11-21-13c-1-2-5-2-7 0-5 3-13 7-20 7-2 0-4 2-6 6l-5 24-15 0-6-24c0-2-2-4-5-6-8-2-13-4-21-7-1-2-5-2-7 0l-20 13-11-11 13-21c1-2 1-5 0-7-4-6-8-13-8-20 0-2-2-4-5-6l-24-6 0-14 24-6c1 0 3-2 5-5 2-8 4-13 8-21 1-2 1-5 0-7l-13-20 11-12 20 13c2 2 6 2 7 0 6-3 13-7 21-7 2 0 3-2 5-6l6-24 15 0 5 24c0 2 2 4 6 6 7 2 13 4 20 7 2 2 6 2 7 0l21-13 11 12-13 20c-2 2-2 5 0 7 4 6 7 13 7 21 0 1 2 3 6 5l24 6 0 14-24 6c-2 0-4 2-6 6z m-68-76c-31 0-59 26-59 59 0 31 26 59 59 59 33 0 59-26 59-59-2-33-28-59-59-59z m0 77c-11 0-20-9-20-20 0-11 9-20 20-20 11 0 20 9 20 20-2 11-9 20-20 20z m0 26c-26 0-46-20-46-46 0-26 20-46 46-46 26 0 46 20 46 46-2 26-22 46-46 46z m0-77c-19 0-33 14-33 33 0 18 14 33 33 33 18 0 33-15 33-33-2-19-16-33-33-33z m0 288c-142 0-257-115-257-257 0-142 115-257 257-257 142 0 257 115 257 257 0 142-117 257-257 257z m111-270c0-4-2-5-6-5l-24-6c-2-6-3-11-7-17l13-20c2-2 2-5 0-7l-19-19c-2-2-5-2-7 0l-22 13c-6-2-11-5-17-7l-5-24c0-4-4-6-6-6l-26 0c-4 0-5 2-5 6l-6 24c-5 2-11 3-17 7l-20-13c-2-2-5-2-7 0l-19 19c-2 2-2 5 0 7l13 22c-2 6-5 11-7 17l-24 5c-4 0-6 4-6 6l0 26c0 4 2 5 6 5l24 6c2 5 3 11 7 17l-13 20c-2 2-2 5 0 7l19 19c2 2 5 2 7 0l20-13c6 2 12 5 17 7l6 24c0 4 3 6 5 6l26 0c4 0 6-2 6-6l5-24c6-2 11-3 17-7l20 13c2 2 6 2 7 0l19-19c2-2 2-5 0-7l-13-20c2-6 6-12 7-17l24-6c4 0 6-3 6-5l0-28z"/>
<glyph glyph-name="share-ico" unicode="&#124;" d="M406 180c-24 0-46-9-64-26-3-3-6-7-10-12l-140 86c3 10 5 19 5 29 0 10-2 20-5 29l140 86c17-24 45-38 74-38 49 0 89 39 89 89 0 50-41 89-89 89-48 0-89-39-89-89 0-10 2-19 5-29l-140-86c-18 24-45 38-72 38-53 0-93-39-93-89 0-50 40-89 89-89 29 0 55 14 72 37l141-85c-4-9-6-19-6-29 0-24 9-46 26-64 17-17 39-25 63-25 24 0 47 8 64 25 17 18 25 40 25 64 0 24-8 46-25 63-14 16-36 26-60 26z m63-89c0-17-7-33-19-45-12-12-27-19-44-19-17 0-33 7-45 19-12 12-19 28-19 45 0 17 7 32 19 44 12 12 28 19 45 19 17 0 32-7 44-19 12-12 19-27 19-44z m-128 332c0 36 29 63 63 63 36 0 63-29 63-63 0-34-27-65-61-65-36 0-65 29-65 65z m-170-166c0-36-29-64-63-64-36 0-63 30-63 64 0 36 29 63 63 63 34 0 63-29 63-63z"/>
<glyph glyph-name="shield-ico" unicode="&#125;" d="M451 481c-4 2-87 28-194 28-107 0-192-26-194-28-8-2-12-8-12-16l0-262c0-89 119-172 200-200 2 0 4 0 6 0 2 0 4 0 6 0 81 28 200 111 200 200l0 262c-2 8-6 14-12 16z m-65-157l-133-130c-6-6-10-8-16-8-6 0-10 2-14 6l-77 75c-4 4-6 10-6 14 0 6 2 10 6 14 8 8 22 8 30 0l61-60 119 115c8 8 22 8 30 0 4-4 6-10 6-14 0-4-2-8-6-12z"/>
<glyph glyph-name="students-ico" unicode="&#92;" d="M447 276c13 11 20 28 20 45 0 34-28 62-61 62-34 0-62-28-62-62 0-17 7-34 20-45-10-4-18-10-26-17-12 10-23 17-37 21 18 14 30 38 30 61 0 42-34 77-77 77-43 0-77-34-77-77 0-23 12-47 31-61-13-4-26-11-38-21-8 6-16 12-25 16 13 11 20 28 20 45 0 34-28 62-62 62-34 0-62-28-62-62 0-17 7-34 20-45-34-16-59-53-59-95l0-7c0-2 2-4 4-4l117 0c0-5-1-8-1-13l0-7c0-31 25-57 57-57l153 0c32 0 57 26 57 57l0 7c0 5 0 8-1 13l118 0c2 0 4 2 4 4l0 7c0 42-25 79-63 96z m-342-15l0 3 0-3c19 0 35-6 49-17-13-15-22-32-28-51l-100 0c7 39 40 68 79 68z m0 99c21 0 38-17 38-38 0-19-17-37-37-37l0-5-1 5c-19 0-36 18-36 37-1 20 17 38 36 38z m154-70l-6 0c-28 1-49 24-49 52 0 29 23 52 53 52 29 0 52-23 52-52-1-28-23-50-50-52z m106-134l0-7c0-19-15-33-33-33l-153 0c-19 0-33 15-33 33l0 7c0 58 48 108 106 109 2 0 6 0 7 0 58-1 106-50 106-109z m41 204c20 0 37-17 37-38 0-19-17-37-36-37l0-5-1 5c-20 0-37 18-37 37-1 20 17 38 37 38z m0-99l0 3 0-3c40 0 73-29 80-68l-101 0c-6 19-16 36-27 50 13 12 30 18 48 18z"/>
<glyph glyph-name="survey-ico" unicode="&#57344;" d="M459 2l-406 0c0 2 0 4 0 6l0 496c0 2 0 4 0 6l275 0c1-1 2-3 3-4l123-123c3-3 4-6 4-10l0-365c0-2 0-4 1-6z m-41 40l0 309-96 0c-7-1-13 1-17 6-5 4-7 10-6 17l0 96-205 0 0-428z m-30 349l-49 49 0-49z m-186 12c1-7-2-14-7-19-5-6-12-8-20-8-7-1-14 2-19 7-6 5-9 12-8 20-1 15 11 27 27 28 15 0 27-12 27-28z m-54-136c0 15 13 27 28 27 15 0 27-13 26-28 0-15-12-28-28-28-15 1-27 14-26 29z m105-19l0 32 131 0 0-32z m0-138l0 32 131 0 0-32z m-68-2l-23-23-50 51 22 22z m-23-23l-22 23 99 98 22-22z"/>
<glyph glyph-name="time-ico" unicode="&#57345;" d="M257 452c108 0 197-89 197-197 0-108-89-197-197-197-108 0-197 89-197 197 0 108 89 197 197 197m0 60c-143 0-257-114-257-257 0-143 114-257 257-257 143 0 257 114 257 257 0 143-116 257-257 257z m0-75c-4 0-8-4-8-8l0-8c0-4 4-8 8-8 4 0 8 4 8 8l0 8c0 4-4 8-8 8z m0-338c-4 0-8-4-8-8l0-8c0-4 4-8 8-8 4 0 8 4 8 8l0 8c0 6-4 8-8 8z m172 166l-8 0c-4 0-8-4-8-8 0-4 4-8 8-8l8 0c4 0 8 4 8 8 0 4-4 8-8 8z m-338 0l-8 0c-4 0-8-4-8-8 0-4 4-8 8-8l8 0c4 0 8 4 8 8 0 4-2 8-8 8z m282 119l-6-5c-4-4-4-8 0-12 2-2 4-2 6-2 2 0 4 0 6 2l5 6c2 4 2 8 0 11-3 2-7 2-11 0z m-238-239l-6-6c-3-4-3-8 0-11 0 0 2-2 6-2 4 0 4 0 6 2l6 5c4 4 4 8 0 12-4 4-10 4-12 0z m244 0c-4 4-8 4-12 0-4-4-4-8 0-12l6-5c2-2 4-2 6-2 2 0 4 0 5 2 4 3 4 7 0 11z m-240 239c-4 4-8 4-11 0-2-3-2-7 1-11l6-6c0-2 2-2 4-2 2 0 4 0 6 2 4 4 4 8 0 12z m95-135l-64 0c-4 0-8 4-8 8 0 4 4 8 8 8l64 0c4 0 8-4 8-8 0-4-4-8-8-8z m23 23c-4 0-8 4-8 8l0 87c0 4 4 8 8 8 4 0 8-4 8-8l0-87c0-4-4-8-8-8z m0-46c-17 0-31 14-31 31 0 17 14 31 31 31 17 0 31-14 31-31 0-17-14-31-31-31z m0 46c-8 0-15-7-15-15 0-8 7-15 15-15 8 0 15 7 15 15 0 8-7 15-15 15z"/>
<glyph glyph-name="twitter-ico" unicode="&#57346;" d="M506 409c-19-8-39-14-59-16 21 12 37 32 45 56-20-12-43-20-66-25-29 30-72 40-111 25-39-15-65-52-66-94 1-7 2-15 3-23-82 4-158 42-211 106-8-16-13-33-13-51 0-34 17-65 44-84-16 0-31 5-46 12l0-1c0-12 3-25 7-36 13-33 42-56 76-63-9-3-18-4-27-4-7 0-13 1-20 2 14-41 53-69 96-70-36-28-81-44-127-44-8 0-16 1-25 2 47-30 102-45 158-45 137-3 257 92 285 226 5 20 7 41 7 61l0 13c20 15 37 33 51 53z"/>
<glyph glyph-name="typing-ico" unicode="&#57347;" d="M26 162c-15 0-26-10-26-26 0-14 11-26 25-26 16 0 26 11 26 26 0 16-10 26-25 26z m89 0c-16 0-26-10-26-26 0-14 10-26 25-26 15 0 26 11 26 26 1 16-10 26-25 26z m88 0c-15 0-26-10-26-26 0-14 11-26 25-26 16 0 26 11 26 26 1 16-9 26-25 26z m309 199c-2 9-6 16-13 21l-16 12c-6 5-14 8-23 6-9-1-16-5-21-13l-24-31-125-164c-1-1-3-5-3-8l-8-57c0-5 1-9 5-12 3-2 6-2 9-2 1 0 3 0 4 1l53 22c3 2 6 3 7 6l120 158 5 7 23 31c5 6 8 14 7 23z m-216-231l5 44 35-27z m53 30l-40 31 109 143 40-31z m143 187l-18-25-40 32 19 24c5 7 16 8 22 3l16-12c1-2 4-6 4-10 1-4 0-8-3-12z"/>
<glyph glyph-name="unfavourite-ico" unicode="&#57348;" d="M257 23c-9 0-19 3-25 8-40 29-228 176-228 307 0 83 68 151 153 151 40 0 74-16 100-43 26 27 61 43 98 43 84 0 151-68 151-151 0-133-188-278-226-307-6-5-16-8-23-8z m-100 435c-68 0-122-54-122-120 0-97 134-224 214-282 5-3 11-3 14 0 80 58 214 185 214 282 0 66-54 120-122 120-33 0-66-17-87-45l-13-17-12 17c-22 29-51 45-86 45z"/>
<glyph glyph-name="unlike-ico" unicode="&#57349;" d="M512 309c0 12-5 25-12 34 7 10 12 23 12 35 0 24-17 44-37 49 3 5 3 12 3 20 0 27-23 51-52 51l-143 0c-20 0-39-2-59-9l-59-23c-7 18-25 30-44 30l-104 0c-10 0-17-7-17-17l0-308c0-10 7-17 17-17l104 0c22 0 39 12 46 32 42-10 84-69 99-121l10-37c2-7 10-12 17-12l17 0c37 0 69 30 69 69l0 17c0 17-5 57-15 86l99 0c27 0 51 22 51 52 0 12-4 25-12 34 5 8 10 20 10 35z m-374-103c0-10-8-18-17-18l-87 0 0 274 87 0c9 0 17-8 17-18z m273 68c0-9 7-17 17-17l35 0c10 0 17-7 17-17 0-10-7-17-17-17l-170 0c-10 0-17-8-17-17 0-10 7-18 17-18l34 0c10-19 18-64 18-86l0-17c0-20-15-35-35-35l-5 0-5 25c-7 32-27 69-49 96-25 27-49 44-76 49l0 212 64 22c15 5 32 8 49 8l143 0c10 0 17-8 17-18 0-10-7-17-17-17-10 0-17-7-17-17 0-10 7-17 17-17l34 0c10 0 17-8 17-18 0-9-7-17-17-17l-34 0c-10 0-17-7-17-17 0-10 7-17 17-17l34 0c10 0 17-8 17-18 0-9-7-17-17-17l-34 0c-13 3-20-7-20-15z m-288 119c0-11-9-20-20-20-10 0-19 9-19 20 0 10 9 19 19 19 11 0 20-9 20-19z"/>
<glyph glyph-name="up-ico" unicode="&#57350;" d="M475 106l30 30c7 7 7 17 0 21l-249 252-253-252c-3-4-3-14 0-21l34-30c7-7 17-7 20 0l189 189c7 6 17 6 20 0l189-189c3-7 13-7 20 0z"/>
<glyph glyph-name="up-circle-ico" unicode="&#57351;" d="M392 187l19 19c4 4 4 10 0 12l-157 158-153-158c-4-4-4-10 0-12l19-19c4-4 10-4 12 0l118 117c4 4 10 4 12 0l118-117c4-4 10-4 12 0z m120 69c0-141-115-256-256-256-141 0-256 115-256 256 0 141 115 256 256 256 141 0 256-115 256-256z m-478 0c0-124 100-222 222-222 124 0 222 100 222 222 0 122-98 222-222 222-124 0-222-98-222-222z"/>
<glyph glyph-name="user-role-ico" unicode="&#57352;" d="M447 276c-13 10-26 18-41 23 21 15 33 40 33 66 0 45-38 83-83 83-46 0-84-35-84-83 0-26 13-51 33-66-12-5-28-13-40-23-5-5-10-10-15-15-10 10-21 15-33 20 20 15 33 43 33 68 0 48-38 89-89 89-50 0-88-38-88-89 0-27 12-53 35-70-15-5-30-13-43-26-28-25-55-58-55-116l0-7c0-36 30-66 65-66l177 0c23 0 46 13 56 33l131 0c33 0 61 28 61 60l0 8c0 30-13 78-53 111z m-147 91c0 30 25 56 56 56 30 0 58-26 58-56 0-30-25-53-53-55l-5 0c-33 0-56 25-56 55z m175-210c0-20-16-35-36-35l-124 0c0 3 0 5 0 8l0 7c-2 28-12 74-48 109 21 23 51 38 81 38 3 0 5 0 8 0 63 0 113-53 113-119l0-8z"/>
<glyph glyph-name="user-settings-ico" unicode="&#57353;" d="M243 130c-21 3-35 16-37 35l0 26c0 19 13 35 31 37l6 0c0 3 2 6 2 8-13 13-13 37 0 50 0 0 3 3 3 3-8 8-18 13-29 16 24 16 37 45 37 74 0 50-40 93-93 93-52 0-92-43-92-93 0-29 13-56 37-74-16-5-32-13-45-27-32-29-61-63-61-124l0-8c0-39 32-71 69-71l172 0c-11 13-11 34 2 50 0 3-2 5-2 5z m267 64c0 5-5 10-13 10l-6 0c-8 0-13 6-15 14-3 5-3 10-6 13-2 5-2 13 3 18 3 3 3 3 5 6 5 2 5 10 0 16-5 7-13 13-18 18-6 3-11 3-14 0-2-3-2-3-5-5-5-6-13-6-18-3-6 3-11 5-16 5-6 3-11 8-11 14 0 2 0 5 0 8 0 5-5 10-10 10-8 0-19 0-27 0-5 0-10-5-10-10 0-3 0-6 0-6 0-8-6-13-11-16l-19-5c-5-3-13-3-18 3-3 2-3 2-5 5-6 5-11 5-16 0-5-5-11-11-19-18 0-3 0-11 3-16l3-3c5-5 8-13 2-21 0-5-2-8-5-13-3-8-8-14-16-14-3 0-5 0-8 0-5 0-10-5-10-10 0-8 0-16 0-24 0-5 5-11 10-11l5 0c8 0 14-5 16-10 3-5 6-11 6-16 2-8 2-16-3-21 0 0-3-3-3-3-5-5-5-10 0-16 6-5 8-10 14-13 7-8 13-8 21 0 5 5 16 8 21 3 5-3 8-3 13-6 8-2 13-7 13-15l0-6c0-5 6-10 11-10 5 0 8 0 13 0l8 0c11 0 19 5 16 16 0 5 3 10 8 13 8 5 16 8 26 10 6 0 14-2 16-8 0 0 0-2 3-2 5-5 13-3 16 0 5 5 10 10 16 16 5 5 2 10 0 16l-3 2c-5 5-5 13-3 21 3 3 3 6 6 11 2 11 10 18 23 16 6 0 11 5 11 10 0 11 0 19 0 27z m-138-93c-42 0-79 32-79 74 0 0 0 3 0 3 0 45 34 79 77 79 45 0 79-34 79-76 0-43-32-77-77-80z"/>
<glyph glyph-name="users-group-ico" unicode="&#57354;" d="M458 286c-11 8-21 16-35 19 19 13 30 35 30 56 0 41-33 73-73 73-11 0-22-3-32-8 16-19 27-46 27-73 0-22-6-43-19-62 5-3 10-8 16-11 56-46 67-113 70-140l0-11c0-2 0-5 0-8l13 0c30 0 54 25 54 54l0 11c-2 27-13 70-51 100z m-380-146c0 67 32 108 65 140l0 3c5 5 11 8 16 11-11 19-16 40-16 62 0 27 8 51 24 70-11 8-24 11-38 11-40 0-72-33-72-73 0-22 10-46 29-57-13-5-27-13-37-21-22-25-46-52-46-100l0-5c0-30 24-54 54-54l21 0c0 2 0 5 0 8z m278 121c-14 11-27 19-43 25 21 16 35 43 35 70 0 48-41 89-89 89-49 0-89-41-89-89 0-27 13-54 35-70-16-6-30-14-43-25-30-29-57-62-57-121l0-8c0-38 30-67 67-67l178 0c38 0 68 29 68 67l0 8c-6 32-19 86-62 121z"/>
<glyph glyph-name="users-ico" unicode="&#57355;" d="M168 259c-24 0-42-17-46-41l59 0c4 11 9 22 17 30-9 7-19 11-30 11z m0 15l0-2 0 2c13 0 22 11 22 22 0 13-9 22-22 22-11 0-22-11-22-22 2-11 11-22 22-22z m178 0l0-2 0 2c13 0 22 11 22 22 0 13-9 22-22 22-11 0-23-11-23-22 0-11 12-22 23-22z m-91 1l4 0c16 2 29 15 29 32 0 16-13 31-31 31-17 0-31-13-31-31 1-17 12-30 29-32z m2 237c-142 0-257-115-257-257 0-142 115-257 257-257 142 0 257 115 257 257-2 142-117 257-257 257z m150-305c0-2-2-2-2-2l-70 0c0-2 0-5 0-7l0-4c0-18-15-33-34-33l-90 0c-19 0-34 15-34 33l0 4c0 2 0 5 0 7l-68 0c-2 0-2 2-2 2l0 4c0 24 15 46 35 55-7 8-11 17-11 26 0 20 17 37 37 37 21 0 37-17 37-37 0-11-4-20-11-26 6-2 11-5 15-9 7 5 15 9 22 13-11 7-18 22-18 35 0 26 20 46 46 46 26 0 46-20 46-46 0-13-7-28-18-35 7-2 14-8 22-13 5 4 9 7 14 9-7 8-11 17-11 26 0 20 17 37 37 37 21 0 37-17 37-37 0-11-3-20-11-26 22-9 37-31 37-55l0-4z m-148 55c0 0-2 0-4 0-35 0-63-29-63-64l0-4c0-11 8-18 19-18l90 0c11 0 19 7 19 18l0 4c2 35-26 63-61 64z m87-3c-11 0-21-4-28-11 7-8 13-19 17-30l59 0c-6 24-24 41-48 41z"/>
<glyph glyph-name="wifi-ico" unicode="&#57356;" d="M257 106c-18 0-31-13-31-31 0-17 13-31 31-31 17 0 31 14 31 31 0 17-14 31-31 31z m241 236c-64 60-150 93-241 93-91 0-177-33-242-94-12-11-12-28 0-39 5-5 13-8 20-8 7 0 15 2 21 8 53 50 124 75 200 75 76 0 147-25 201-75 11-11 30-11 41 0 12 11 12 29 0 40z m-242-16c-67 0-131-26-178-74-12-12-12-31 0-43 6-6 13-9 21-9 8 0 16 3 22 9 36 36 84 58 135 58 51 0 100-22 136-58 12-12 31-12 43 0 12 12 12 31 0 43-48 48-111 74-179 74z m1-110c-39 0-74-15-101-43-11-11-11-30 0-42 6-6 13-9 20-9 8 0 15 3 21 9 16 17 38 27 60 27 23 0 45-11 61-27 11-11 29-11 40 0 11 11 11 30 0 42-27 28-63 43-101 43z"/>
<glyph glyph-name="zalo-ico" unicode="&#57358;" d="M159 353c-3 0-5 0-8 0-4-1-7-5-9-9-1-6 2-12 9-13 3-1 5-1 8-1 11 0 23 0 34 0 2 0 3 1 4-1-1-1-2-2-3-3-16-21-33-42-49-63-4-5-6-10-3-17 3-6 10-7 15-7 5 0 10 0 15 0 17 0 34 0 52 0 9 0 14 5 13 14-1 6-6 10-14 10-15 0-30 0-46 0 1 3 3 4 4 5 14 18 28 36 42 53 4 5 8 11 11 17 3 7 0 13-7 16-4 1-7 1-10 1-21-2-39-2-58-2z m263-119c26 3 42 22 41 49-1 26-20 44-47 43-26 0-44-21-43-48-1-27 21-46 49-44z m-3 68c5 0 10-3 13-7 6-7 6-22 0-29-1-1-2-3-3-3-8-6-18-5-24 3-3 4-5 9-4 14-2 14 7 22 18 22z m-73-65c2 0 3-1 5-1 7 0 13 6 13 14 0 16 0 33 0 50 0 16 0 33 0 49 0 9-6 14-13 14-8 0-13-5-14-14 0-5 0-10 0-15l0-84c0-7 4-12 9-13z m-82-1c12-4 23-2 33 5 3 3 3 2 5 0 3-4 9-7 15-4 4 1 8 6 8 12 0 21 0 42 0 63 0 9-8 14-16 12-5 0-7-4-9-7-14 12-28 12-43 4-18-10-24-27-22-46 3-18 11-33 29-39z m18 66c5 0 10-3 13-7 5-7 5-21 0-29-1-1-3-3-4-3-8-6-18-5-24 3-3 4-4 9-4 13-1 15 7 23 19 23z m151 196l-354 0c-44 0-78-35-78-78l0-328c0-42 34-78 78-78l355 0c43 0 78 35 78 78l0 328c-1 43-35 78-79 78z m-336-412c0 0 0 0 1 0 2 1 3 3 5 3 14 9 27 19 35 34 7 12 6 19-3 28-50 50-72 110-61 181 6 40 24 75 51 105 15 16 32 30 50 42l254 0c34 0 62-28 62-62l0-267c-20-20-43-35-70-47-65-28-131-30-199-7-5 2-12 2-18 0-9-2-18-5-26-7-26-8-53-12-80-7-4 2-1 4-1 4z"/>
<glyph glyph-name="cart-ico" unicode="&#57359;" d="M497 415c-9 11-23 16-37 16l-366 0-4 28c-3 29-24 53-46 53l-27 0c-8 0-15-7-15-15 0-9 7-16 15-16l27 0c4 0 15-9 17-26l43-323c1-14 9-28 21-37 8-7 18-13 29-14-4-9-7-17-7-27 0-30 25-55 55-55 31 0 56 25 56 55 0 10-3 18-5 25l79 0c-4-7-6-16-6-25 0-30 25-55 56-55 31 0 56 25 56 55 0 10-3 18-6 25l39 0c8 0 15 7 15 16 0 8-7 15-15 15l-306 0c-15 0-29 12-31 26l-3 24 297 0c14 0 28 6 40 15 11 10 18 24 21 38l21 161c1 16-3 29-13 41z m-270-361c0-14-11-25-25-25-13 0-25 11-25 25 0 14 12 25 25 25 14 0 25-11 25-25z m177 0c0-14-11-25-25-25-14 0-25 11-25 25 0 14 11 25 25 25 14 0 25-11 25-25z m71 341c4-4 6-10 4-17l-8-68-102 0 6 91 85 0c5 1 11-2 15-6z m-213-204l-5 90 79 0-6-90z m-8 121l-6 90 96 0-5-90z m-36 90l5-90-112 0-13 90z m-103-121l111 0 6-90-105 0z m311-90l-66 0 5 90 100 0-8-64c-1-14-15-26-31-26z"/>
<glyph glyph-name="back-btn" unicode="&#57360;" d="M438 461l-364 0c-41 0-74-33-74-74l0-262c0-41 33-74 74-74l364 0c41 0 75 33 75 74l0 262c-1 41-34 74-75 74z m50-336c0-28-22-50-50-50l-364 0c-27 0-50 22-50 50l0 262c0 28 22 50 50 50l364 0c28 0 51-22 51-50l0-262z m-188 238c-5 5-14 5-19 0l-98-98c-2-3-4-6-4-9 0-4 2-7 4-10l98-98c5-5 14-5 19 0 4 5 4 14 0 19l-89 89 89 89c4 4 4 13 0 18z"/>
<glyph glyph-name="filter-setting" unicode="&#57361;" d="M218 446c-6 39-37 66-76 66-39 0-71-27-77-66l-60 0 0-24 60 0c6-37 38-64 77-64 39 0 70 27 76 64l289 0 0 24z m-22-12c0-2 0-4 0-6-4-27-27-49-54-49-28 0-51 22-55 49 0 2 0 4 0 6 0 2 0 4 0 6 4 29 27 49 55 49 27 0 50-22 54-49 0-2 0-4 0-6z m174-100c-39 0-70-27-76-64l-289 0 0-24 289 0c6-37 37-64 76-64 39 0 71 27 77 64l60 0 0 24-60 0c-6 35-40 64-77 64z m55-78c0-2 0-4 0-6-4-27-27-49-55-49-27 0-50 22-54 49 0 2 0 4 0 6 0 2 0 4 0 6 4 27 27 49 54 49 28 0 51-22 55-49 0-2 0-4 0-6z m-193-102c-40 0-71-27-77-64l-150 0 0-24 150 0c6-37 37-64 77-64 39 0 70 27 76 64l199 0 0 24-199 0c-6 37-37 64-76 64z m0-131c-28 0-51 22-55 49 0 2 0 4 0 6 0 2 0 4 0 6 4 27 27 49 55 49 27 0 50-22 54-49 0-2 0-4 0-6 0-2 0-4 0-6-4-27-27-49-54-49z"/>
<glyph glyph-name="shoot" unicode="&#57363;" d="M256 0c-141 0-256 115-256 256 0 141 115 256 256 256 141 0 256-115 256-256 0-141-115-256-256-256z m0 507c-138 0-251-113-251-251 0-138 112-251 251-251 138 0 251 113 251 251 0 139-113 251-251 251z m216-251c0-119-97-216-216-216-120 0-217 97-217 216 0 120 97 217 217 217 119 0 216-97 216-217z m-216-218c-120 0-219 98-219 218 0 120 99 219 219 219 120 0 218-99 218-219 0-120-98-218-218-218z m0 433c-118 0-215-97-215-215 0-118 97-215 215-215 119 0 215 97 215 215 0 118-97 215-215 215z"/>
<glyph glyph-name="play-ico" unicode="&#36;" d="M447 254l-382 258 0-512z"/>
<glyph glyph-name="menu-course" unicode="&#57364;" d="M93 261c1 0 2 0 3 0 15 7 35 11 59 11 25 0 49-5 60-11 1 0 2-1 4-1 2 0 4 1 6 4 1 2 1 3 0 5 0 2-2 4-3 4-13 8-39 13-66 13-26 0-49-5-66-12-2-1-3-2-3-4-1-2-1-4 0-6 0-2 3-3 6-3z m0-53c1 0 2 0 3 0 15 7 35 11 59 11 25 0 49-4 60-11 1 0 2-1 4-1 2 0 4 1 6 4 2 4 0 8-3 10-13 7-39 12-66 12-26 0-49-4-66-12-2 0-3-2-3-4-1-2-1-4 0-6 0-2 3-3 6-3z m0 106c1 0 2 0 3 1 15 6 35 10 59 10 25 0 49-4 60-10 1-1 2-2 4-2 2 0 4 2 6 4 2 4 0 8-3 10-13 7-39 12-66 12-26 0-49-4-66-11-3-2-5-7-3-10 0-3 3-4 6-4z m0 53c1 0 2 0 3 0 15 7 35 11 59 11 25 0 49-4 60-11 1 0 2-1 4-1 2 0 4 1 6 4 2 4 0 8-3 10-13 7-39 12-66 12-26 0-49-4-66-12-3-2-5-6-3-9 0-2 3-4 6-4z m203-106c1 0 2 0 4 1 10 6 35 10 59 10 23 0 45-3 60-10 1-1 2-1 3-1 3 0 5 2 7 5 1 3 0 7-4 9-17 8-40 11-66 11-27 0-54-5-66-12-2-1-3-2-3-4-1-2 0-4 0-6 1-2 3-3 6-3z m128-40c-16 8-40 12-65 12-27 0-54-5-67-12-2-2-3-3-3-5 0-1 0-3 1-5 1-3 3-4 6-4 1 0 2 1 4 1 10 7 35 11 59 11 23 0 45-4 60-11 1 0 2 0 3 0 3 0 5 2 7 4 0 3-1 7-5 9z m-128 93c1 0 2 1 4 1 10 6 35 11 59 11 23 0 45-4 60-11 1 0 2 0 3 0 3 0 5 1 7 4 1 4 0 8-4 9-17 7-40 12-66 12-27 0-54-5-66-12-2-2-3-3-3-5-1-2 0-3 0-5 1-3 3-4 6-4z m0 53c1 0 2 0 4 1 10 6 35 10 59 10 23 0 45-3 60-10 1-1 2-1 3-1 3 0 5 2 7 5 1 3 0 8-4 9-17 8-40 12-66 12-27 0-54-5-66-13-2-1-3-2-3-4-1-2 0-4 0-6 1-2 3-3 6-3z m206 37c-8 7-16 11-26 11l-11 0 0 2c-1 17-11 20-27 25l-1 0c-20 6-50 10-82 10-41 0-76-6-97-16l-1-1-2 1c-25 12-64 14-86 15-4 0-8 0-12 0-31 0-62-3-81-9l-1 0c-15-4-25-7-26-25l0-2-11 0c-9 0-18-4-25-11-7-6-11-16-11-25l0-260c0-36 34-55 67-55l377 0c33 0 66 19 66 55l0 260c0 9-4 19-10 25z m-439 11c0 5 0 7 2 8 3 2 7 3 15 6l1 0c18 5 48 8 78 8 38 0 71-5 90-13l1-1 0-267-3 1c-20 7-49 12-78 12-4 0-9 0-13 0-24 0-58-2-90-13l-3-1z m187-289l-64 0c-4 0-7-3-7-7 0-4 3-8 7-8l64 0 0-34-181 0c-21 0-52 11-52 41l0 261c0 6 2 11 6 15 4 5 9 7 15 7l11 0 0-267c0-12 9-23 22-23l76 0c3 0 7 3 7 8 0 3-3 7-7 7l-76 0c-5 0-8 4-8 8l0 5 1 1c31 12 67 14 91 14 37 0 74-5 94-14l1-1 0-13z m14 297l2 0c19 9 51 14 89 14 31 0 60-3 78-9l1 0c8-2 13-3 15-5 2-2 3-3 3-9l0-260-4 1c-31 11-66 13-89 13-5 0-9 0-13 0-30-1-58-6-78-12l-4-1z m187-284l0-5c0-4-3-8-8-8l-179 0 0 14 2 0c19 9 57 15 93 15 25 0 60-2 91-15z m46-20c0-30-31-41-52-41l-181-1 0 34 179 0c13 0 22 10 22 23l0 267 11 0c5 0 11-3 15-7 4-4 6-9 6-15z"/>
<glyph glyph-name="menu-user" unicode="&#57367;" d="M255 10c7 0 15 1 23 1 6 1 13 2 20 3l3 1c126 23 213 139 201 266-12 127-118 224-247 224-136 0-248-110-248-247 0-137 112-248 248-248z m149 71l-1-1c-5-4-10-7-14-11-1-1-2-1-2-1-5-4-10-7-15-10-1-1-2-1-2-2-6-2-11-6-16-8-1 0-2-1-2-1-6-3-12-5-17-7-1 0-1-1-2-1-6-2-12-4-18-5l-1-1c-6-1-12-3-19-4 0 0 0 0-1 0-7-1-12-2-19-3l-1 0c-6 0-13 0-20 0-6 0-13 0-20 0-6 1-12 2-19 3 0 0 0 0-1 0-6 1-13 3-19 4l0 1c-6 2-12 4-17 6-1 0-2 0-2 0-6 2-12 5-17 7-1 0-1 1-2 1-5 2-11 5-16 8-1 0-1 0-2 1-5 3-10 6-14 9-2 2-2 2-3 3-5 3-9 7-14 10l-1 2 0 69c0 51 40 91 90 91l116 0c51 0 91-40 91-91z m-312 341c90 89 236 89 326 0 90-90 91-235 2-326l0 54c0 59-48 108-107 108l-116 0c-59 0-107-49-107-108l0-54c-89 91-88 236 2 326z m163-148c46 0 83 37 83 83 0 46-37 82-83 82-46 0-83-37-83-83 1-45 37-82 83-82z m0 149c36 0 66-30 66-66 0-36-30-66-66-66-36 0-66 30-66 66 0 36 30 66 66 66z"/>
<glyph glyph-name="menu-agency" unicode="&#57368;" d="M415 83c-4 0-7-3-7-7 0-4 3-7 7-7 4 0 7 3 7 7 0 4-3 7-7 7z m0 423l-319 0c-14 0-26-11-26-26l0-18-1-1c-29-56-46-85-55-101-9-17-10-17-10-19l0-21c0-16 10-31 24-39l2 0 0-271c0-3 3-6 7-6l438 0c4 0 7 3 7 6l0 270 2 1c15 8 24 23 24 39l0 20c0 2-1 3-10 20-9 16-26 45-55 100l-2 1 0 18c0 15-11 27-26 27z m-333-27c0 8 6 14 14 14l319 0c7 0 14-6 14-14l0-13-347 0z m259-133l-18 107 47 0 36-107z m68-12l0-14c0-18-16-33-34-33-18 0-33 15-33 33l0 14z m-80 0l0-14c0-18-15-33-33-33-19 0-33 15-33 33l0 14z m-67 12l0 107 48 0 18-107z m-157 0l35 107 48 0-18-107z m65-12l0-14c0-18-15-33-33-33-19 0-34 15-34 33l0 14z m12 0l67 0 0-14c0-18-15-33-33-33-19 0-33 15-33 33l0 14z m2 12l18 107 48 0 0-107z m-104 107l47 0-35-107-70 0z m-63-133l0 14 73 0 0-14c0-17-17-33-36-33-6 0-11 1-15 3-13 6-22 18-22 30z m193-304l-107 0 0 93 107 0z m0 105l-107 0 0 94 107 0z m259-105l-247 0 0 205c0 3-3 6-6 6l-120 0c-3 0-6-3-6-6l0-205-47 0 0 260 4-1c2 0 4-1 7-1 12 0 24 5 34 13 2 2 3 4 5 6l3 3 3-3c9-12 22-19 38-19 14 0 28 7 37 19l2 3 3-3c9-12 23-19 37-19 15 0 28 7 37 19l3 3 3-3c9-12 22-19 37-19 14 0 28 7 37 19l3 3 2-3c9-12 23-19 37-19 15 0 29 7 38 19l3 3 3-3c1-2 3-4 5-6 10-9 22-13 34-13 3 0 5 0 7 1l4 1 0-260z m26 304c0-13-10-25-23-31-5-1-10-3-14-3-19 0-37 16-37 34l0 13 73 0 0-13z m-5 26l-71 0-35 107 47 0z m-55-225l-14 0 0 100c0 3-3 6-7 6l-118 0c-4 0-7-3-7-6l0-100-13 0c-4 0-7-2-7-6 0-4 3-7 7-7l159 0c3 0 6 3 6 7 0 4-3 6-6 6z m-26 0l-107 0 0 94 107 0z m-34-39l-79 0c-4 0-7-3-7-7 0-3 3-6 7-6l79 0c4 0 7 3 7 6 0 4-3 7-7 7z"/>
<glyph glyph-name="menu-finance" unicode="&#57369;" d="M264 292l-1 0c-1 0-1 0-2 0l-1 0c-13 2-23 13-23 26 0 3-2 5-6 5-3 0-5-2-5-5 0-17 11-31 27-36l3-1 0-13c0-3 2-5 6-5 2 0 5 2 5 5l0 13 3 0c19 4 31 21 30 40-3 19-18 33-37 33-15 0-27 12-27 27 0 15 12 26 27 26 14 0 26-11 26-26 0-3 2-6 6-6 2 0 5 3 5 6 0 17-12 32-29 36l-3 1 0 12c0 3-3 6-6 6-2 0-5-3-5-6l0-13-3 0c-18-5-30-22-28-40 3-19 19-32 37-32 14 0 26-12 26-26 1-15-11-26-25-27z m-1-79c75 0 136 61 136 136 0 75-60 136-136 136-74 0-135-61-136-136 0-75 61-136 136-136z m0 262c69 0 125-57 125-126 0-68-56-125-125-125-68 0-125 57-125 125 0 69 56 125 125 126z m210-289c-7 0-14-2-20-5l-80-37-2 3c-10 18-28 30-49 31l-70 2c-11 0-23 3-33 9l-7 3c-17 10-36 14-56 14-19 0-39-5-56-14l-7-3 1 23c0 2-1 3-2 4-1 1-2 2-4 2l-76 1c-3 0-5-2-5-4l-5-168c0-2 0-3 1-4 1-1 2-2 4-2l77-2c3 0 5 2 5 5l1 11 22 12c9 5 19 6 29 3l119-34c8-1 17-2 25-2 18 0 36 3 52 11 0 0 1 0 1 1l172 111c2 2 3 4 1 7-7 13-22 22-38 22z m-394-137l-67 2 5 158 66-2z m253 5c-15-7-31-11-47-11-8 0-15 1-23 3l-119 33c-4 1-9 1-14 1-8 0-16-2-23-6l-17-9 4 109 2 1c18 12 39 18 61 18 18 0 35-4 51-12l7-4c12-6 25-10 38-10l70-2c22 0 40-15 45-37l1-6-110 4c-3 0-6-2-6-5 0-2 1-3 2-4 1-1 2-2 4-2l115-3c2 0 5 2 5 5 0 4 0 8-1 11l0 4 80 38c5 2 10 3 15 3 9 0 17-3 24-9l4-4z"/>
<glyph glyph-name="menu-order" unicode="&#57373;" d="M149 253l228 0c5 0 9 4 9 9 0 5-4 9-9 9l-228 0c-6 0-9-4-9-9 0-5 4-9 9-9z m0-128l228 0c5 0 9 3 9 9 0 5-4 9-9 9l-228 0c-6 0-9-4-9-9 0-6 4-9 9-9z m0 256l228 0c5 0 9 4 9 9 0 6-4 9-9 9l-228 0c-6 0-9-3-9-9 0-5 4-9 9-9z m293-379c16 0 28 12 28 28l0 450c0 15-12 28-28 28l-371 0c-16 0-29-13-29-28l0-451c0-15 13-28 29-28l371 0z m-378 27l0 451c0 3 3 6 7 6l371 0c4 0 7-3 7-6l0-451c0-3-3-6-7-6l-371 0c-4 0-7 3-7 6z"/>
<glyph glyph-name="report-ico" unicode="&#60;" d="M332 471c0 3-5 5-7 5-3 0-8 0-10-5-3-2-17-21-39-48-40-41-120-123-204-151l-67-24c0 0-3-3-5-3 0-2 0-7 0-7l34-99c2-4 7-7 12-4 26 9 67 21 84 26l41-120c2-5 4-7 9-7 0 0 3 0 3 0l81 26c3 0 5 2 5 5 0 2 3 5 0 7l-33 99c50 0 98-8 134-12l29-5c5 0 10-3 14-3l12-2 5 0c3 0 7 0 10 2 2 3 2 8 2 10z m-310-238l40 15 25-82c-15-5-29-10-39-12z m202-41c-3 0-5-2-8-5-2-2-2-4 0-9l36-103-62-22-41 120c-2 5-5 7-10 7 0 0-2 0-2 0-2 0-14-5-29-9l-29 84c75 26 145 86 193 142l72-212c-34 2-77 7-120 7z m180-19l-31 5c-3 0-5 0-5 0l-80 231c0 0 3 2 3 2 12 14 21 26 29 34l81-233 17-46c-5 5-9 7-14 7z m-5 178l10-24c0-2 2-2 2-2 0 0 2 0 2 0 0 0 3 0 3 0l86 36c3 0 3 4 3 7l-10 24c0 2-2 2-2 2-3 0-3 0-5 0l-87-36c-2 0-4-5-2-7z m87 31l4-14-74-31-5 14z m-89 3c0 0 2 0 2 0 2 0 2 0 5 2l43 63c0 2 0 2 0 4 0 3 0 3-2 5l-22 15c-2 2-7 0-7-3l-43-65c0-2 0-2 0-5 0-2 0-2 2-4z m26 74l12-7-36-53-12 7z m87-171c0 3-3 3-3 3l-72 17c-2 0-7 0-7-5l-7-24c0-3 0-3 0-5 0-2 2-2 2-2l72-17c0 0 0 0 3 0 2 0 4 2 4 5l8 24c2 2 2 2 0 4z m-15-21l-62 14 2 15 63-15z"/>
<glyph glyph-name="menu-category" unicode="&#107;" d="M257 0c-25 0-46 21-46 46l0 9-119 67-5 0c-9-7-18-12-29-12-26 0-46 21-46 46 0 19 11 35 29 44l3 0 0 115-3 0c-18 4-29 22-29 41 0 25 20 43 46 43 11 3 22-2 29-9l3-2 119 66 0 12c0 25 21 46 46 46 11 0 25-5 32-14 11-9 14-21 14-32l0-9 121-67 3 0c9 7 18 12 29 12 26 0 46-21 46-46 0-19-11-35-29-44l-3 0 0-110 3 0c18-5 29-23 29-44 0-25-20-45-46-45-11 0-20 4-29 11l-3 2-119-66 0-9c0-28-21-51-46-51z m0 67c-9 0-18-9-18-19 0-9 9-18 18-18 9 0 19 9 19 18 0 10-10 19-19 19z m46 188l0-9c0-19-11-35-30-44l-2 0 0-110 2 0c5-2 9-5 14-9l2-3 122 67 0 9c0 19 11 35 30 44l2 0 0 112-2 0c-5 3-9 5-14 9l-2 3z m-216 66c-2-4-9-6-13-9l-3 0 0-110 3 0c18-5 29-23 29-44l0-9 122-66 2 2c5 5 9 7 14 9l2 0 0 110-2 0c-18 5-30 23-30 44l0 9z m367-146c-9 0-18-7-18-19 0-9 9-18 18-18 10 0 19 9 19 18 0 9-9 19-19 19z m-396 0c-10 0-19-7-19-19 0-9 9-18 19-18 9 0 18 9 18 18 0 9-7 19-18 19z m199 89c-9 0-18-9-18-18 0-10 9-19 18-19 9 0 19 7 19 19 0 9-10 18-19 18z m0 25c12 0 21-4 30-11l2-2 120 66 0 23-120 67-2-3c-9-7-18-9-30-9-14 0-23 5-30 12l-2 0-122-67 0-18 120-67 2 2c9 5 21 7 32 7z m197 87c-11 0-18-9-18-18 0-9 9-18 18-18 10 0 19 9 19 18 0 9-9 18-19 18z m-396 0c-12 0-19-9-19-18 0-9 9-18 19-18 9 0 18 9 18 18 0 7-7 18-18 18z m199 108c-11 0-18-9-18-18 0-9 9-18 18-18 9 0 19 9 19 18 0 9-10 18-19 18z"/>
<glyph glyph-name="menu-product" unicode="&#57362;" d="M475 169c-11 26-21 51-31 76-1 2-2 3-2 3-1 1-1 2-1 3 3 15 5 31 8 46 3 21 7 42 11 63 1 8-4 16-12 17-17 3-34 6-51 9-1 0-2 0-2 1-4 11-7 21-10 32-2 5-5 9-12 10-17 3-35 6-52 9-8 2-14-1-19-7-5-9-11-16-18-25 0 0-1-1-1-1-2 0-4 1-6 1 0 1 0 1 0 2 0 5 0 9 0 14 0 12-8 22-20 24-2 1-4 1-7 1 0 3 0 6 0 9 0 5-2 8-7 8-3 0-5 0-7 0 0 6 0 12 0 18 1 0 1 0 2 0 14 0 29 0 42 0 4 0 6 2 7 4 0 3-1 6-4 8-4 2-9 5-14 7-9 5-19 9-29 9-16 0-33 0-49 0-3 0-5-2-5-6 0-5 0-11 0-16 0-4 2-6 5-6 3 0 6 0 9 0 0-6 0-12 0-18-2 0-5 0-7 0-5 0-8-3-8-8 0-1 0-4 0-5 0-1 0-2 0-4 0 0-1 0-1 0-14-1-25-12-25-26 0-19 0-39 0-58 0-8 0-16 0-25 0-2 2-4 4-4 2 0 4 2 4 4 0 1 0 1 0 2 0 27 0 54 0 81 0 11 8 19 18 19 22 0 44 0 65 0 2 0 4-1 6-1 8-3 12-10 12-19 0-50 0-102 0-152 0-1 0-2 0-3 1-6-3-9-9-9-10 0-19 0-28 0-4 0-4-1-6-4-2 0-4 0-6 0 4 7 4 7 4 16 0 10 0 21 0 32 0 2 0 4 0 6-3 13-14 22-28 22-12 0-25 0-38 0-1 0-2 0-2 0 0 1 0 2 0 3 0 20 0 39 0 59 0 7 0 13 0 20 0 4-2 7-4 10-2 2-5 4-9 4 0 2 0 4 0 6 0 4-2 7-6 7-1 0-1 0-1 0 0 0 0 2 0 2 0 9 0 18 0 27 0 5-4 9-9 9-7 0-14 0-21 0-5 0-8-4-8-9 0-9 0-18 0-27 0 0 0-1 0-2 0 0 0 0 0 0-5 0-7-3-7-7 0-2 0-4 0-6-1 0-2 0-2 0-6-2-10-6-11-12 0-2 1-5 4-5 2-1 4 1 4 3 1 4 3 6 8 6 16 0 32 0 47 0 5 0 8-3 8-8 0-7 0-16 0-23 0-1 0-2 0-2-21 0-42 0-62 0 0 4 0 8 0 13 0 2-2 4-4 4-2 0-4-2-4-4 0-44 0-88 0-133 0-1 0-2 0-3 0-3 2-6 5-9-1 0-2 0-3 0-4 0-7-2-8-6-11-24-21-48-31-72 0-1 0-3 0-4 0-4 4-7 8-7 4 0 9 0 13 0 3 0 6 0 9 0 0-1 0-2 0-3 0-30 0-60 0-91 0-20 0-40 0-60 0-4 2-7 6-8 0 0 1 0 3 0 81 0 162 0 242 0 38 0 75 0 113 0 6 0 9 3 9 9 0 35 0 69 0 104 0 14 0 29 0 43 0 1 1 2 2 2 5 0 9 0 13 0 3 0 6 0 8 0 6 0 10 6 8 11z m-280 322c0 4 0 8 0 12 0 0 1 0 1 0 14 0 28 0 41 0 11 0 21-3 30-8 2-1 4-2 6-4 0 0 0 0 0 0-25 0-52 0-78 0z m34-8c0-7 0-13 0-19-6 0-13 0-19 0 0 6 0 12 0 19 6 0 12 0 19 0z m14-35c-16 0-32 0-48 0 0 3 0 6 0 8 16 0 32 0 48 0 0-2 0-5 0-8z m-137 19c6 0 13 0 19 0 0 0 1 0 1 0 0-10 0-20 0-30-7 0-14 0-21 0 0 1 0 2 0 2 0 8 0 17 0 26 0 1 0 2 1 2z m28-43c-12 0-24 0-37 0 0 2 0 3 0 5 12 0 24 0 37 0 0-2 0-3 0-5z m298-162c-20 3-40 7-60 11 17 20 21 42 12 66 20-3 40-6 60-10-4-22-8-45-12-67z m-131 151c3 4 7 9 11 14 1 3 4 3 6 3 18-4 36-6 54-10 2 0 3-1 4-4 2-9 5-18 8-26 0 0 0-1 0-2-30 5-60 10-90 16 3 3 5 6 7 9z m-24-16c5 0 9-1 14-2 22-4 44-8 67-12 23-3 46-7 69-11 6-1 13-2 19-4 3 0 4-2 4-5-1-7-3-16-4-24-4 1-7 2-11 2-15 3-31 6-46 8-3 0-7 1-9 2-1 0-2 0-3 1-10 13-22 22-39 25-17 4-34 0-48-10-1-1-3-1-4-1-3 1-6 1-8 2-1 10-1 19-1 29z m0-60c0 1 0 1 1 2 9 19 30 31 51 30 26-2 47-22 49-47 4-28-16-54-44-59-3 0-6 0-8-1-22 1-38 11-48 30-1 0-1 1-1 2 0 14 0 28 0 43z m0-63c1-1 1-1 1-1 14-15 30-22 49-21 13 0 24 3 35 11 1 0 1 1 3 0 20-3 39-6 59-10 2 0 5 0 7-1 0 0 0 0 1 0-1 0-1-1-1-1-1 0-1 0-1 0-53 0-104 0-157 0 0 0-1 0-1 0 0 0 0 0 0 1 6 5 6 13 5 22z m-82 47c10 0 18-7 19-16 1-2 1-3 1-6-36 0-72 0-108 0-1 10 7 20 17 21 1 0 3 0 4 0 23 1 45 1 67 1z m20-57c0-5-2-8-7-8-31 0-62 0-93 0-5 0-8 3-8 8 0 9 0 17 0 26 0 1 0 1 0 2 37 0 72 0 108 0 0-1 0-1 0-2 0-10 0-18 0-26z m-130 111c20 0 41 0 61 0 0-12 0-24 0-37-20 0-41 0-61 0 0 13 0 25 0 37z m0-45c20 0 41 0 62 0 0-1 0-1 0-2-1 0-2 0-2 0-7 0-14 0-20 0-14-1-25-13-25-26 0-13 0-24 0-37 0-5 1-10 6-13-3 0-6 0-8 0 0 0 0 0 0 0-1 3-2 4-5 4-5 0-7 3-7 8 0 21 0 43 0 64-1 0-1 1-1 2z m252-314c-84 0-168 0-252 0 0 49 0 97 0 146 1 0 2 0 2 0 76 0 151 0 226 0 6 0 9 2 11 7 4 10 8 19 12 29 0 0 1 1 1 1 0-61 0-122 0-183z m0 211c-7-17-15-34-22-51-1-1-1-2-2-2-86 0-172 0-257 0-1 0-1 0-3 0 2 2 2 4 3 6 7 19 15 38 23 57 1 1 1 1 2 1 87 0 172 0 258 0 1 0 2 0 3 0-1-4-3-8-5-11z m89-211c-24 0-47 0-71 0 0 64 0 126 0 190 2-3 3-7 6-11 5-10 11-21 16-32 1-3 4-5 8-5 13 0 26 0 39 0 0 0 1 0 2 0 0-47 0-95 0-142z m31 155c-23 0-47 0-70 0-1 0-1 0-2 2-10 21-20 42-30 63 0 1 0 1 0 2 0 0 1 0 2 0 24 0 49 0 73 0 2 0 2-1 3-2 8-21 17-42 26-63 0-1 0-2 0-2-1 0-2 0-2 0z m-209 195c-3 17-16 27-34 25-13-1-24-13-25-26 0-9 0-18 0-27 0-2 2-4 4-4 2 0 4 2 4 4 0 8 0 15 0 22 0 2 0 3 1 5 2 11 12 20 23 18 12-1 20-10 20-22 0-9 0-18 0-27 0-8-3-14-11-18-2-2-2-4-1-6 1-2 3-2 5-1 9 5 14 13 14 23 1 6 0 11 0 16 0 2 0 3 0 5 1 4 1 9 0 13z m-69-269c-1 0-3 0-4 0-16 0-31 0-48 0-3 0-7 0-12 0-6 0-10-4-10-10 0-15 0-30 0-45 0-6 4-10 10-10 10 0 20 0 30 0 11 0 21 0 31 0 6 0 10 4 10 9 0 16 0 31 0 47 0 5-3 8-7 9z m-7-52c-17 0-35 0-52 0 0 12 0 25 0 37 17 0 35 0 52 0 0-12 0-25 0-37z m27 0c34 0 68 0 103 0 0 5 0 10 0 16-34 0-69 0-103 0 0-6 0-11 0-16z m40 40c-13 0-26 0-40 0 0-5 0-10 0-16 14 0 27 0 40 0 0 6 0 11 0 16z m169-8c-11 0-23 0-35 0 0-6 0-11 0-16 12 0 24 0 35 0 0 5 0 11 0 16z m-35-40c12 0 23 0 35 0 0 5 0 10 0 16-12 0-23 0-35 0 0-6 0-11 0-16z m50 315c3-1 7-1 10-1 3 0 6 1 6 4 0 2-2 5-4 6-3 0-6 1-10 1-3 1-5-1-5-4-1-2 1-5 3-6z m-18 4c3 0 5 2 5 5 0 2-2 5-5 5-3 0-5-3-5-5 1-3 2-5 5-5z m-79-85c23 0 44 20 44 43 0 25-20 45-44 45-24 0-44-20-44-43 0-23 18-44 44-45z m0 78c18 0 34-16 34-34 0-19-16-34-34-34-19 0-34 15-34 34 0 19 15 34 34 34z m31 64c-6 1-12 2-18 3-4 1-7 1-11 2-3 0-5-2-5-5 0-2 1-5 4-5 10-2 19-3 28-5 3-1 6 1 6 4 1 3-1 5-4 6z m-242 39c2 0 4 2 4 4 0 2-2 4-4 4-2 0-4-2-4-4 1-2 2-4 4-4z m191-139c3 0 5 2 5 5 2 6 6 10 12 11 2 0 4 0 5 0 3 0 5 2 5 5 1 3-1 5-4 5-1 1-2 1-4 1-11 0-21-8-24-19 0-1 0-2 0-3 1-2 3-5 5-5z"/>
<glyph glyph-name="menu-gift" unicode="&#57365;" d="M471 387l-75 0 11 19c5 11 9 22 9 34 0 38-31 69-68 69-23 0-39-8-53-26-11-14-19-34-26-54l-12-30-13 30c-8 21-17 41-26 55-14 17-30 25-53 25-38 0-68-31-68-69 0-11 3-23 9-34l10-19-74 0c-21 0-38-17-38-38l0-31c0-15 8-28 22-35l8-3 0-239c0-21 17-38 38-38l368 0c21 0 38 17 38 38l0 239 8 3c13 6 22 20 22 34l0 31c1 22-16 39-37 39z m-193 24c24 61 34 82 70 82 30 0 54-23 54-53 0-30-24-54-54-54l-82 0z m-167 29c0 30 23 54 53 54 37 0 48-24 71-83l11-25-82 0c-30 1-53 25-53 54z m92-422l-131 0c-13 0-23 10-23 23l0 240 154 0 0-263z m0 277l-161 0c-12 0-23 10-23 22l0 31c0 13 11 23 23 23l161 0z m92-277l-77 0 0 354 77 0z m169 24c0-13-11-23-23-23l-132 0 0 262 155 0z m30 276c0-12-10-23-23-23l-162 0 0 77 163 0c13-1 22-11 22-23z"/>
<glyph glyph-name="menu-setting" unicode="&#57366;" d="M475 312l-46 0c-8 0-14 4-16 11-3 6-1 13 4 19l32 32c4 4 7 11 7 17 0 7-2 13-7 18l-41 41c-9 9-26 9-36 0l-33-32c-5-5-12-6-19-3-7 3-10 9-10 16l0 45c0 14-12 25-25 25l-59 0c-14 0-25-11-25-25l0-45c0-8-4-14-11-16-7-3-13-2-19 3l-32 32c-10 10-26 9-36 0l-41-41c-4-4-7-11-7-17 0-7 2-13 7-18l32-32c6-5 7-12 4-19-3-7-9-10-16-10l-45 0c-14 0-26-12-26-25l0-60c0-13 12-25 26-25l45 0c8 0 14-4 16-11 3-6 2-13-4-19l-32-31c-4-5-7-12-7-18 0-7 2-13 7-17l41-42c10-9 26-9 36 0l32 32c6 6 12 7 19 4 7-3 11-9 11-16l0-45c0-14 11-26 25-26l59 0c13 0 25 12 25 26l0 45c0 8 3 14 10 16 7 3 14 2 19-4l32-32c10-9 26-9 36 0l41 42c5 4 8 11 8 17 0 7-3 13-8 18l-32 31c-5 6-7 13-4 19 3 7 9 11 16 11l46 0c14 0 25 12 25 25l0 59c1 13-11 25-24 25z m7-84c0-4-4-7-7-7l-46 0c-14 0-27-8-33-22-5-13-3-28 8-38l32-32c3-3 3-8 0-10l-41-41c-3-3-7-3-10 0l-32 32c-11 10-25 13-39 7-13-5-22-18-22-33l0-45c0-4-3-7-7-7l-58 0c-4 0-7 3-7 7l0 45c0 15-8 28-22 33-5 2-9 3-14 3-9 0-18-4-25-10l-32-32c-3-3-8-3-10 0l-41 41c-3 3-3 7 0 10l32 32c11 10 14 25 8 38-6 14-19 22-33 22l-46 0c-3 0-7 3-7 7l0 59c0 4 4 7 7 7l46 0c14 0 27 8 33 22 5 13 3 28-8 39l-32 31c-3 3-3 8 0 10l41 41c3 3 7 3 10 0l32-32c11-10 25-13 39-7 14 5 22 18 22 33l0 45c0 4 3 7 7 7l58 0c4 0 7-3 7-7l0-45c0-15 9-28 22-33 14-5 28-2 39 7l32 32c3 3 8 3 10 0l41-41c3-3 3-7 0-10l-33-31c-10-11-14-26-7-39 5-14 18-22 32-22l46 0c4 0 7-3 7-7l0-59z m-226 111c-45 0-82-37-82-82 0-45 37-81 82-81 45 0 81 36 81 81 0 45-36 82-81 82z m0-145c-35 0-64 28-64 63 0 35 29 63 64 63 35 0 63-28 63-63 0-34-28-63-63-63z"/>
<glyph glyph-name="menu-noti" unicode="&#57371;" d="M399 223l0 80c0 60-41 112-100 129l0 30c0 22-19 40-42 40-23 0-42-18-42-40l0-30c-60-17-100-69-100-129l0-80c0-16-2-32-7-47-10-31-27-59-50-82-7-6-9-15-5-24 2-6 8-11 15-13 2 0 4 0 6 0l125 0c3-22 20-40 43-46 16-4 33-1 47 7 14 9 24 23 26 39l125 0c10 0 19 7 22 16 2 8 0 16-6 21-37 34-57 81-57 129z m-160 256c6 6 15 9 24 6 11-3 19-12 18-23l0-26c0 0-1 0-2 0-3 1-6 1-8 1-1 0-3 0-4 1-3 0-6 1-9 1 0 0-1 0-2 0 0 0-1 0-2 0-3 0-6 0-9-1-1 0-2 0-3 0-3-1-6-1-10-1 0 0-1 0-1 0l0 25c0 7 3 13 8 17z m17-454c-19 0-37 14-41 32l82 0c-3-18-21-32-41-32z m189 53c0-3-3-5-6-5l-365 0c-2 0-5 2-5 4-2 3-1 5 1 6 25 25 44 55 54 89 4 16 7 34 7 51l0 80c0 55 38 102 94 116 8 2 16 3 24 3 2 0 5 1 7 1 9 0 18-1 27-3 1 0 3 0 5-1l1-1c55-14 93-61 93-115l0-80c0-52 22-103 62-140 1-2 1-3 1-5z"/>
<glyph glyph-name="reply-ico" unicode="&#57372;" d="M4 275c0-5 3-9 5-11l223-184c4-5 11-5 15-2 5 2 9 6 9 13l0 96c90 0 153-6 228-140 2-4 6-7 13-7 2 0 2 0 4 0 7 3 11 7 11 14 0 4 0 6 0 11 0 48 0 122-33 183-39 73-114 110-221 114l0 96c0 5-2 11-9 14-6 2-11 2-15-3l-225-183c-5-5-5-7-5-11z m35 0l189 155 0-81c0-9 6-13 13-13 107 0 175-33 210-99 22-41 28-89 28-131-30 46-63 75-98 90-42 20-86 22-143 22-4 0-6-2-8-5-2-2-5-6-5-8l0-81z"/>
<glyph glyph-name="left-ico" unicode="&#100;" d="M403 475l-31 30c-7 7-13 7-20 0l-249-246 252-252c7-7 14-7 21 0l30 30c7 7 7 14 0 20l-185 182c-10 7-10 20 0 30l182 182c6 7 6 17 0 24z"/>
<glyph glyph-name="right" unicode="&#74;" d="M109 37l31-30c7-7 17-7 23 0l246 249-252 249c-7 7-14 7-21 0l-30-30c-7-7-7-14 0-20l182-186c10-6 10-20 0-30l-182-182c-3-3-3-13 3-20z"/>
<glyph glyph-name="svg-computer" unicode="&#57370;" d="M431 335l-78 0c-13 0-23-10-23-23l0-96c0-15 12-27 27-27l74 0c15 0 27 12 27 27l0 92c-1 15-12 27-27 27z m14-120c0-8-6-14-14-14l-75 0c-8 0-14 6-14 14l0 97c0 6 5 10 11 10l78 0c8 0 15-6 15-14l0-93z m-155 43l-74 0c-11 0-20-9-20-20l0-29c0-11 9-20 20-20l74 0c12 0 21 9 21 20l0 29c0 11-9 20-21 20z m9-49c0-5-4-8-9-8l-74 0c-4 0-8 3-8 8l0 29c0 4 4 8 8 8l74 0c5 0 9-4 9-8z m141 206l-93 0c-10 0-18-8-18-17l0-31c0-10 8-17 18-17l93 0c9 0 17 7 17 17l0 31c0 9-7 17-17 17z m5-48c0-3-2-6-5-6l-93 0c-3 0-6 3-6 6l0 31c0 3 3 5 6 5l93 0c3 0 5-2 5-5z m27 119l-432 0c-22 0-40-18-40-40l0-289c0-22 18-40 40-40l177 0 0-71-99 0c-9 0-16 0-16-9 0-9 7-11 16-11l277 0c9 0 16 2 16 11 0 9-7 9-16 9l-99 0 0 71 177 0c22 0 40 18 40 40l0 289c-1 22-19 40-41 40z m28-327c0-15-12-27-27-27l-433 0c-15 0-27 12-27 27l0 288c0 15 12 27 27 27l434 0c15 0 27-12 27-27l0-288z m-344 99l-80 0c-11 0-20-9-20-20l0-29c0-11 9-20 20-20l80 0c12 0 21 9 21 20l0 29c0 11-10 20-21 20z m8-49c0-5-3-8-8-8l-80 0c-5 0-8 3-8 8l0 29c0 4 3 8 8 8l80 0c5 0 9-4 9-8l0-29z m120 206l-202 0c-15 0-27-12-27-27l0-85c0-15 12-27 27-27l202 0c15 0 27 12 27 27l0 85c0 15-12 27-27 27z m15-112c0-7-7-14-15-14l-202 0c-8 0-14 7-14 14l0 85c0 8 6 14 14 14l202 0c8 0 15-6 15-14z"/>
<glyph glyph-name="menu-left" unicode="&#49;" d="M355 375l-322 0c-19 0-33 14-33 33 0 18 14 33 33 33l322 0c19 0 33-15 33-33 0-19-16-33-33-33z m124-151l-446 0c-19 0-33 14-33 33 0 19 14 33 33 33l446 0c19 0 33-14 33-33 0-19-14-33-33-33z m-124-153l-322 0c-19 0-33 15-33 33 0 19 14 33 33 33l322 0c19 0 33-14 33-33 0-17-16-33-33-33z"/>
<glyph glyph-name="mute-ico" unicode="&#57374;" d="M276 461c-10 7-24 7-35 0-2 0-2-2-3-2l-118-110-75 0c-19 0-35-16-35-35l0-116c0-19 16-35 35-35l75 0 118-110c0 0 1-2 3-2 5-3 12-5 18-5 5 0 12 2 17 5 11 7 18 18 18 30l0 350c0 12-7 23-18 30z m-166-266l-65 0c-2 0-3 1-3 3l0 116c0 2 1 3 3 3l65 0z m152-114c0 0 0-2-2-2 0 0-1 0-1 0l-119 109c-2 0-2 1-4 1-3 2-9 4-12 4l0 123c3 0 9 1 12 3 2 0 2 2 4 2l119 112c0 0 1 0 1 0 2 0 2-2 2-2z m172 175l63 63c5 5 5 16 0 21-5 5-16 5-21 0l-65-65-65 65c-5 5-16 5-21 0-5-5-5-16 0-21l65-65-65-65c-5-5-5-15 0-21 4-3 7-3 11-3 3 0 7 2 10 3l65 65 65-65c3-3 7-3 10-3 4 0 7 2 11 3 5 6 5 16 0 21z"/>
<glyph glyph-name="fullscreen-ico" unicode="&#57375;" d="M1 512l0-199 41 0 0 158 158 0 0 41z m469 0l-158 0 0-41 158 0 0-158 41 0 0 199z m0-471l-158 0 0-41 199 0 0 199-41 0z m-428 158l-41 0 0-199 199 0 0 41-158 0z"/>
<glyph glyph-name="minimize-ico" unicode="&#57376;" d="M200 313l0 199-41 0 0-158-158 0 0-41z m155 0l156 0 0 41-156 0 0 158-43 0 0-199z m0-155l156 0 0 41-199 0 0-199 43 0z m-196-158l41 0 0 199-199 0 0-41 158 0z"/>
<glyph glyph-name="unmute-ico" unicode="&#57377;" d="M276 461c-10 7-24 7-35 0-2 0-2-2-3-2l-118-110-75 0c-19 0-35-16-35-35l0-116c0-19 16-35 35-35l75 0 118-110c0 0 1-2 3-2 5-3 12-5 18-5 5 0 12 2 17 5 11 7 18 18 18 30l0 350c0 12-7 23-18 30z m-234-263l0 116c0 2 1 3 3 3l65 0 0-121-65 0c-2-1-3 0-3 2z m220-117c0 0 0-2-2-2 0 0-1 0-1 0l-119 109c-2 0-2 1-4 1-3 2-9 4-12 4l0 123c3 0 9 1 12 3 2 0 2 2 4 2l119 112c0 0 1 0 1 0 2 0 2-2 2-2z m137 289c-4 3-7 5-11 5-3 0-9-2-10-5-4-4-6-7-6-11 0-3 2-8 6-10 54-54 54-140 0-195-4-3-6-7-6-10 0-4 2-9 6-11 3-3 7-5 10-5 4 0 9 2 11 5 66 65 66 172 0 237z m-44-26c-5 5-16 5-23 0-3-4-5-7-5-11 0-3 2-9 5-10 18-18 26-41 26-65 0-25-8-48-26-65-3-4-5-7-5-11 0-3 2-8 5-10 4-4 7-5 11-5 3 0 8 1 10 5 49 44 49 123 2 172z m80 71c-7 7-15 7-22 0-4-3-6-7-6-10 0-4 2-9 6-11 38-38 59-87 59-142 0-54-21-103-59-141-4-4-6-7-6-11 0-3 2-9 6-10 3-4 7-6 10-6 4 0 9 2 11 6 43 43 68 101 68 164 0 63-23 118-67 161z"/>
<glyph glyph-name="shopping-ico" unicode="&#57378;" d="M461 69l-30 331c0 7-6 12-14 12l-60 0c-1 55-46 100-101 100-55 0-100-45-101-100l-60 0c-8 0-14-5-14-12l-30-331c0 0 0 0 0-1 0-37 35-68 77-68l256 0c42 0 77 31 77 68 0 1 0 1 0 1z m-205 415c40 0 72-32 73-72l-146 0c1 40 33 72 73 72z m128-456l-256 0c-27 0-48 18-49 40l28 316 48 0 0-43c0-8 6-14 14-14 8 0 14 6 14 14l0 43 146 0 0-43c0-8 6-14 14-14 8 0 14 6 14 14l0 43 47 0 29-316c-1-22-22-40-49-40z"/>
<glyph glyph-name="folder-ico" unicode="&#57379;" d="M325 303c-6 0-12 0-18 0 0 4 0 8 0 13 0 5-1 6-7 6-14 0-29 0-43 1-9 1-17 4-24 10-4 4-8 8-13 12-3 2-6 4-10 4-22 1-44 1-65 1-4 0-8 0-12 0-9 0-14-5-13-15 0-8 2-17 2-26 3-26 5-53 8-79 2-15 3-31 5-46 1-5 3-10 5-14 7-11 26-10 32 3 6 15 11 31 17 46 7 20 14 39 22 59 5 15 12 20 27 20 50 0 100-1 150 0 18 0 29-16 28-32 0-3-2-6-2-9-11-29-21-58-31-87-4-12-12-21-26-24-2 0-6 0-8 0-51 0-103 0-154 0-12 0-23 0-34-1-23-1-39 16-42 36-2 21-4 43-7 64-3 28-5 57-8 85-1 11 0 20 7 28 4 6 11 9 19 9 27 0 53 0 79 0 10 0 18-3 24-9 3-2 6-4 8-7 9-10 20-11 31-11 11 1 23 0 34 0 10 0 18-8 19-17 0-7 0-14 0-20z m-69-303c-141 0-256 115-256 256 0 142 115 256 256 256 141 0 255-115 255-256 0-141-114-256-255-256z m0 489c-129 0-233-104-233-233 0-128 104-233 233-233 128 0 233 105 233 233 0 129-105 233-233 233z"/>
<glyph glyph-name="next10-btn" unicode="&#57380;" d="M443 216c-8-96-90-172-186-172-105 0-188 84-188 188 0 103 83 186 186 186l0-49 61 36 41 23 0-57 62 34 61 34-61 34-62 36 0-58-41 24-61 34 0-49c-126 0-227-103-227-228 0-126 103-229 229-229 57 0 112 22 155 60 42 39 68 92 72 148z m-223-55l0 140-57-5 0-21 29 0 0-114z m92 140c-14 0-27-5-35-14-8-10-12-22-12-39l0-38c0-16 4-29 12-38 8-10 21-14 35-14 13 0 26 4 34 14 8 9 12 22 12 38l0 38c0 17-4 29-12 39-8 9-19 14-34 14z m19-94c0-9-2-16-6-20-4-4-8-7-13-7-6 0-11 3-14 7-3 5-6 12-6 20l0 44c0 8 2 17 6 21 3 5 8 7 14 7 5 0 11-3 13-7 3-6 6-13 6-21z"/>
<glyph glyph-name="back10-btn" unicode="&#57381;" d="M257 460l0 49-62-34-40-24 0 58-61-34-62-36 62-34 61-34 0 57 40-23 62-34 0 47c103-1 185-85 185-187 0-103-84-188-188-188-96 0-178 75-187 171l-41-4c6-56 30-110 73-148 42-38 97-60 155-60 126 0 229 102 229 229 1 126-100 229-226 229z m-47-299l0 140-58-5 0-21 29 0 0-114z m92-3c14 0 26 4 34 14 8 9 13 22 13 38l0 38c0 17-5 29-13 39-8 9-20 14-34 14-14 0-26-5-34-14-9-10-13-22-13-39l0-38c0-16 4-29 13-38 8-9 19-14 34-14z m-19 93c0 8 1 17 5 21 3 5 8 7 14 7 5 0 11-3 14-7 2-6 5-13 5-21l0-44c0-9-1-16-5-20-4-4-9-7-14-7-6 0-11 3-14 7-3 5-5 12-5 20z"/>
<glyph glyph-name="next-track" unicode="&#57382;" d="M221 129l146 103 0-229 104 0 0 506-104 0 0-229-146 102-180 127 0-506z"/>
<glyph glyph-name="prev-track" unicode="&#57383;" d="M291 382l-146-102 0 229-104 0 0-506 104 0 0 229 146-103 180-126 0 506z"/>
<glyph glyph-name="ibenefit-logo" unicode="&#57384;" d="M3 268c6-2 21-2 21-11l0-50c0 0-21 0-21 10z m32 29l31 0c20 0 34-6 34-24l0-2c0-8-4-16-10-18 7-3 12-11 12-19l0-3c0-17-15-24-36-24l-15 0c0 0-16 0-16 10l0 80z m21-15l0-22 11 0c9 0 12 4 12 13 0 7-4 9-13 9z m0-37l0-23 10 0c10 0 14 3 14 11 0 8-4 12-13 12z m54-17l0 21c0 14 11 23 29 23 19 0 27-8 27-21 0-11-5-21-26-21-6 0-9 2-9 2l0-2c0-7 4-10 12-10 12 0 22 4 22 9 1-3 2-6 1-9-1-10-9-14-24-14-21-1-32 8-32 22z m21 17c1-1 4-1 6-1 5 0 9 1 9 6 0 5-2 8-8 8-5 0-7-4-7-10z m83 2c0 8-2 11-9 11-4 0-9-1-9-1l0-51c0 0-20 0-20 9 0 0 0 31 0 40 0 11 12 17 28 17 14 0 30-4 30-21l0-45c0 0-20 0-20 9l0 32z m30-19l0 21c0 14 11 23 29 23 19 0 27-8 27-21 0-11-5-21-26-21-6 0-10 2-10 2l0-2c0-7 5-10 13-10 12 0 21 4 22 9 1-3 1-6 1-9-1-10-9-14-24-14-21-1-32 8-32 22z m20 17c2-1 5-1 7-1 4 0 9 1 9 6 0 5-2 8-8 8-6 0-8-4-8-10z m173-17c-2-6-7-7-12-7-9 0-11 4-11 11l0 21 12 0c11 0 11 16 11 16l-23 0 0 6c0 11-21 10-21 10l0-56c0-15 10-23 29-23 12 0 18 3 21 8-3 3-5 9-6 14z m-76 41c7-1 22-2 22-11l0-52c0 0-22 0-22 10z m-48 14c0 15 11 24 27 24 23 0 32-14 14-25 0 6-5 9-14 9-7 0-6-4-6-10l0-12 21 0c0 0 0-15-12-15l-9 0 0-48c0 0-21 0-21 10l0 67z m58 14l4 0c4 0 6-3 7-5l0-21c0 0-3 2-10 4-7 1-10 2-10 5 0 0 10 4 9 17z m107-28c-18 0-32-14-32-32 0-18 14-32 32-32 17 0 31 14 31 32 0 18-14 32-31 32z m-5-36c-1-2-3-7-3-7 0 0 0-1-1-3-1-1-3-1-4-1 0 0-1 0-1 0 0 0-2 1-2 1-1 1-1 3-2 3 0 0 0 1 0 2-1 2-1 3-2 5l-3 9c0 0-1 1-1 2l0 0c0 1-1 2-1 2l0 2 0 0 4 0c1 0 2 0 3-2 0 0 0 0 0 0l4-12c1-1 1-2 1-3 0 0 0 0 1-1 0 1 0 1 0 1 0 1 0 2 1 3 0 0 4 12 4 13 1 1 2 2 3 2l4 0z m21 6c0 3-1 4-4 4-1 0-3-1-3-1l0-20c0 0-8 0-8 4l0 22c0 0 2-1 5-1 2 0 5 1 7 1 5 0 10-1 10-8l0-18c0 0-7 0-7 4z m-491 58l14 0c5 0 7-5 7-7l0-20c0 0-4 3-11 4-7 1-10 3-10 7z"/>
<glyph glyph-name="micoff-btn" unicode="&#57385;" d="M391 162c15 26 25 54 25 85 0 10-8 18-17 18-10 0-18-8-18-18 0-21-5-40-13-58z m-54-125l-66 0 0 48c31 4 58 16 81 33l-25 27c-21-15-46-25-73-25-69 0-127 56-127 127 0 10-8 18-18 18-9 0-17-8-17-18 0-83 62-152 145-162l0-48-66 0c-10 0-17-8-17-17 0-10 7-18 17-18l166 0c10 0 17 8 17 18 0 9-7 17-17 17z m-183 297l0-85c0-56 44-100 100-100 21 0 41 6 56 17z m193-123c4 11 7 23 7 36l0 162c0 54-44 101-100 101-52 0-94-41-100-91z m-274 254c6 4 13 4 17 0l351-380c4-5 4-13 0-17-6-4-13-4-17 0l-351 378c-6 6-6 13 0 19z"/>
<glyph glyph-name="outcall-ico" unicode="&#57386;" d="M288 35c-33 17-64 41-92 64-10 7-19 14-26 24-50 45-92 96-128 153-16 26-30 57-37 87-5 24-7 48-5 69 2 19 12 35 28 45 14 11 31 21 43 28 5 2 12 5 16 7 12 2 24-2 31-14l28-40 33-50c3-5 5-9 7-14 10-14 5-35-9-45-7-7-17-12-24-19-2 0-4-2-7-4-7-5-9-15-4-24 11-21 23-40 40-59 28-33 61-64 99-90 4-4 12-7 19-11 7-8 19-5 26 2 0 0 2 2 2 2 5 5 9 12 12 17 4 5 7 9 12 16 11 14 30 17 44 7 12-7 22-14 33-21 22-14 43-28 64-42 17-10 24-31 17-47 0-3-3-5-3-5-7-12-14-24-23-38-12-21-36-33-59-35-10 2-55-7-137 37z m141 430l-151 0c-11 0-23-10-23-24 0-12 9-23 23-23l97 0-125-125c-9-10-9-24 0-33 10-10 24-10 33 0l125 125 0-97c0-12 10-24 24-24 12 0 23 10 23 24l0 153c0 7-2 12-7 17-7 4-14 7-19 7z"/>
</font>
</defs>
</svg>
