<?xml version="1.0" encoding="utf-8"?>
<!-- Generator: Adobe Illustrator 23.0.1, SVG Export Plug-In . SVG Version: 6.00 Build 0)  -->
<svg version="1.1" id="Layer_1" xmlns="http://www.w3.org/2000/svg" xmlns:xlink="http://www.w3.org/1999/xlink" x="0px" y="0px"
	 viewBox="0 0 300 300" style="enable-background:new 0 0 300 300;" xml:space="preserve">
<style type="text/css">
	.st0{fill:#25BDC1;}
	.st1{fill:#FFFFFF;}
	.st2{opacity:0.48;fill:#62DDDD;}
	.st3{opacity:0.78;fill:#62DDDD;}
</style>
<path class="st1" d="M244,298.4H56C26,298.4,1.6,274,1.6,244V56C1.6,26,26,1.6,56,1.6H244c30,0,54.4,24.4,54.4,54.4V244
	C298.4,274,274,298.4,244,298.4z M56,8.5C29.8,8.5,8.5,29.8,8.5,56V244c0,26.2,21.3,47.6,47.6,47.6H244c26.2,0,47.6-21.3,47.6-47.6
	V56c0-26.2-21.3-47.6-47.6-47.6H56z"/>
<g>
	<g>
		<g>
			<g>
				<path class="st1" d="M26.4,123.6c9.7,2.1,31.8,3.1,31.8,16.9v75.3c0,0-31.8,0-31.8-14.5C26.4,201.4,26.4,123.6,26.4,123.6z"/>
			</g>
			<path class="st1" d="M74.7,80.8h47.3c30.4,0,52.5,8.6,52.5,36.3v3.8c0,11.1-6.2,24.2-15.2,27.6c10.4,4.1,16.9,16.9,16.9,28.3v4.1
				c0,26.3-22.1,36.6-54.6,36.6H98.6c0,0-24.2-0.3-24.2-14.5L74.7,80.8L74.7,80.8z M107.2,103.6v33.5h16.2
				c13.8,0,18.7-6.9,18.7-19.3c0-10.7-6.6-14.2-20-14.2C122.1,103.6,107.2,103.6,107.2,103.6z M107.2,159.9v34.9h14.9
				c15.5,0,22.1-4.5,22.1-16.9c0-12.8-6.2-18-20.4-18C123.8,159.9,107.2,159.9,107.2,159.9z"/>
			<path class="st1" d="M189.8,185.5v-32.1c0-21.4,15.9-34.6,44.2-34.6s40.4,13.1,40.4,32.5c0,16.2-8.3,31.1-39,31.1
				c-9.3,0-15.2-2.8-15.2-2.8v3.1c0,10.4,7.3,14.9,18.3,14.9c19,0,33.2-5.5,33.9-12.8c1.4,3.1,2.4,8.6,1.7,13.8
				c-1.7,14.9-13.1,21.4-36.6,21.4C206.7,220,189.8,207.2,189.8,185.5z M220.5,159.5c2.8,0.7,6.6,2.1,10.4,2.1
				c6.6,0,12.8-2.1,12.8-10c0-6.6-3.1-11.1-11.1-11.1c-9.3,0-12.1,5.5-12.1,15.5V159.5z"/>
		</g>
		<path class="st1" d="M26.4,80.8h21.4c7.6,0,10.4,7.3,10.4,10.7v30.4c0,0-5.2-4.1-15.9-6.2c-10.7-2.1-15.9-4.8-15.9-10V80.8z"/>
	</g>
</g>
</svg>
